<mxfile host="Electron" agent="Mozilla/5.0 (X11; Linux x86_64) AppleWebKit/537.36 (KHTML, like Gecko) draw.io/26.0.16 Chrome/132.0.6834.196 Electron/34.2.0 Safari/537.36" version="26.0.16" pages="4">
  <diagram id="a4bZPdrZ0EXimFBTohqo" name="current">
    <mxGraphModel dx="1421" dy="828" grid="1" gridSize="10" guides="1" tooltips="1" connect="1" arrows="1" fold="1" page="1" pageScale="1" pageWidth="1169" pageHeight="827" math="0" shadow="0">
      <root>
        <mxCell id="0" />
        <mxCell id="1" parent="0" />
        <mxCell id="T-pwhXv3p6EA6cjzu4Aj-1" style="rounded=1;orthogonalLoop=1;jettySize=auto;html=1;fontSize=14;endArrow=oval;endFill=1;strokeWidth=2;sourcePerimeterSpacing=0;targetPerimeterSpacing=4;endSize=8;noEdgeStyle=1;orthogonal=1;" parent="1" source="T-pwhXv3p6EA6cjzu4Aj-4" target="T-pwhXv3p6EA6cjzu4Aj-15" edge="1">
          <mxGeometry relative="1" as="geometry">
            <Array as="points" />
            <mxPoint x="370" y="216" as="targetPoint" />
          </mxGeometry>
        </mxCell>
        <mxCell id="T-pwhXv3p6EA6cjzu4Aj-3" style="rounded=1;orthogonalLoop=1;jettySize=auto;html=1;strokeWidth=2;fontSize=14;endArrow=oval;endFill=1;endSize=8;sourcePerimeterSpacing=0;targetPerimeterSpacing=4;noEdgeStyle=1;orthogonal=1;" parent="1" source="T-pwhXv3p6EA6cjzu4Aj-4" target="2M_V4ClDC-BP4bTIay96-8" edge="1">
          <mxGeometry relative="1" as="geometry">
            <Array as="points">
              <mxPoint x="400" y="100" />
              <mxPoint x="720" y="130" />
            </Array>
            <mxPoint x="660" y="145.9999999999999" as="targetPoint" />
          </mxGeometry>
        </mxCell>
        <mxCell id="T-pwhXv3p6EA6cjzu4Aj-4" value="Competition Specification" style="rounded=1;whiteSpace=wrap;html=1;fontSize=14;" parent="1" vertex="1">
          <mxGeometry x="240" y="40" width="180" height="50" as="geometry" />
        </mxCell>
        <mxCell id="T-pwhXv3p6EA6cjzu4Aj-13" style="edgeStyle=none;rounded=1;orthogonalLoop=1;jettySize=auto;html=1;strokeWidth=2;fontSize=14;endArrow=oval;endFill=0;endSize=8;sourcePerimeterSpacing=0;targetPerimeterSpacing=4;noEdgeStyle=1;orthogonal=1;" parent="1" source="T-pwhXv3p6EA6cjzu4Aj-4" target="T-pwhXv3p6EA6cjzu4Aj-12" edge="1">
          <mxGeometry relative="1" as="geometry">
            <Array as="points">
              <mxPoint x="260" y="100" />
              <mxPoint x="100" y="130" />
            </Array>
            <mxPoint x="646.25" y="100" as="sourcePoint" />
            <mxPoint x="860" y="216" as="targetPoint" />
          </mxGeometry>
        </mxCell>
        <mxCell id="60SrA1wxnVIxEKFK9Wrk-1" value="System under Test" style="rounded=1;whiteSpace=wrap;html=1;fontSize=14;" parent="1" vertex="1">
          <mxGeometry x="40" y="310" width="110" height="40" as="geometry" />
        </mxCell>
        <mxCell id="60SrA1wxnVIxEKFK9Wrk-2" style="rounded=1;orthogonalLoop=1;jettySize=auto;html=1;strokeWidth=2;fontSize=14;endArrow=oval;endFill=1;endSize=8;sourcePerimeterSpacing=0;targetPerimeterSpacing=4;noEdgeStyle=1;orthogonal=1;" parent="1" source="J-1FAMz3SUVpt_T2eCSc-1" target="60SrA1wxnVIxEKFK9Wrk-1" edge="1">
          <mxGeometry relative="1" as="geometry">
            <mxPoint x="745.9999999999998" y="165.9999999999999" as="targetPoint" />
            <mxPoint x="630" y="80" as="sourcePoint" />
            <Array as="points">
              <mxPoint x="130" y="280" />
              <mxPoint x="95" y="290" />
            </Array>
          </mxGeometry>
        </mxCell>
        <mxCell id="60SrA1wxnVIxEKFK9Wrk-3" value="Actor (human or machine)" style="rounded=1;whiteSpace=wrap;html=1;fontSize=14;" parent="1" vertex="1">
          <mxGeometry x="120" y="370" width="120" height="40" as="geometry" />
        </mxCell>
        <mxCell id="T-pwhXv3p6EA6cjzu4Aj-10" value="Task" style="rounded=1;whiteSpace=wrap;html=1;fontSize=14;" parent="1" vertex="1">
          <mxGeometry x="420" y="230" width="90" height="40" as="geometry" />
        </mxCell>
        <mxCell id="60SrA1wxnVIxEKFK9Wrk-5" style="rounded=1;orthogonalLoop=1;jettySize=auto;html=1;strokeWidth=2;fontSize=14;endArrow=oval;endFill=0;endSize=8;sourcePerimeterSpacing=0;targetPerimeterSpacing=4;noEdgeStyle=1;orthogonal=1;" parent="1" source="J-1FAMz3SUVpt_T2eCSc-1" target="60SrA1wxnVIxEKFK9Wrk-3" edge="1">
          <mxGeometry relative="1" as="geometry">
            <mxPoint x="684" y="245.9999999999999" as="targetPoint" />
            <mxPoint x="750" y="210" as="sourcePoint" />
            <Array as="points">
              <mxPoint x="170" y="290" />
              <mxPoint x="180" y="350" />
            </Array>
          </mxGeometry>
        </mxCell>
        <mxCell id="J-1FAMz3SUVpt_T2eCSc-1" value="Agent" style="rounded=1;whiteSpace=wrap;html=1;fontSize=14;" parent="1" vertex="1">
          <mxGeometry x="110" y="230" width="80" height="40" as="geometry" />
        </mxCell>
        <mxCell id="XICLtj1YiJ0U6KjELkxg-4" value="&lt;span style=&quot;color: rgb(0, 0, 0); font-family: Helvetica; font-size: 14px; font-style: normal; font-variant-ligatures: normal; font-variant-caps: normal; font-weight: 400; letter-spacing: normal; orphans: 2; text-align: center; text-indent: 0px; text-transform: none; widows: 2; word-spacing: 0px; -webkit-text-stroke-width: 0px; background-color: rgb(248, 249, 250); text-decoration-thickness: initial; text-decoration-style: initial; text-decoration-color: initial; float: none; display: inline !important;&quot;&gt;Objects&lt;/span&gt;" style="rounded=1;whiteSpace=wrap;html=1;fontSize=14;" parent="1" vertex="1">
          <mxGeometry x="200" y="310" width="80" height="40" as="geometry" />
        </mxCell>
        <mxCell id="XICLtj1YiJ0U6KjELkxg-5" value="&lt;span style=&quot;color: rgb(0, 0, 0); font-family: Helvetica; font-size: 14px; font-style: normal; font-variant-ligatures: normal; font-variant-caps: normal; font-weight: 400; letter-spacing: normal; orphans: 2; text-align: center; text-indent: 0px; text-transform: none; widows: 2; word-spacing: 0px; -webkit-text-stroke-width: 0px; background-color: rgb(248, 249, 250); text-decoration-thickness: initial; text-decoration-style: initial; text-decoration-color: initial; float: none; display: inline !important;&quot;&gt;Workspace&lt;/span&gt;" style="rounded=1;whiteSpace=wrap;html=1;fontSize=14;" parent="1" vertex="1">
          <mxGeometry x="290" y="310" width="100" height="40" as="geometry" />
        </mxCell>
        <mxCell id="t9kupKcE2MMrxKV3WQvS-1" value="&lt;span style=&quot;color: rgb(0, 0, 0); font-family: Helvetica; font-size: 14px; font-style: normal; font-variant-ligatures: normal; font-variant-caps: normal; font-weight: 400; letter-spacing: normal; orphans: 2; text-align: center; text-indent: 0px; text-transform: none; widows: 2; word-spacing: 0px; -webkit-text-stroke-width: 0px; background-color: rgb(248, 249, 250); text-decoration-thickness: initial; text-decoration-style: initial; text-decoration-color: initial; float: none; display: inline !important;&quot;&gt;data requirements&lt;/span&gt;" style="rounded=1;whiteSpace=wrap;html=1;fontSize=14;" parent="1" vertex="1">
          <mxGeometry x="860" y="370" width="100" height="40" as="geometry" />
        </mxCell>
        <mxCell id="-mLf3_-rgt-RQV-A_lTv-1" value="&lt;span style=&quot;color: rgb(0, 0, 0); font-family: Helvetica; font-size: 14px; font-style: normal; font-variant-ligatures: normal; font-variant-caps: normal; font-weight: 400; letter-spacing: normal; orphans: 2; text-align: center; text-indent: 0px; text-transform: none; widows: 2; word-spacing: 0px; -webkit-text-stroke-width: 0px; background-color: rgb(248, 249, 250); text-decoration-thickness: initial; text-decoration-style: initial; text-decoration-color: initial; float: none; display: inline !important;&quot;&gt;automated&lt;/span&gt;" style="rounded=1;whiteSpace=wrap;html=1;fontSize=14;" parent="1" vertex="1">
          <mxGeometry x="860" y="310" width="100" height="40" as="geometry" />
        </mxCell>
        <mxCell id="2M_V4ClDC-BP4bTIay96-3" value="&lt;span style=&quot;color: rgb(0, 0, 0); font-family: Helvetica; font-size: 14px; font-style: normal; font-variant-ligatures: normal; font-variant-caps: normal; font-weight: 400; letter-spacing: normal; orphans: 2; text-align: center; text-indent: 0px; text-transform: none; widows: 2; word-spacing: 0px; -webkit-text-stroke-width: 0px; background-color: rgb(248, 249, 250); text-decoration-thickness: initial; text-decoration-style: initial; text-decoration-color: initial; float: none; display: inline !important;&quot;&gt;non-automated (i.e. human)&lt;/span&gt;" style="rounded=1;whiteSpace=wrap;html=1;fontSize=14;" parent="1" vertex="1">
          <mxGeometry x="680" y="350" width="120" height="40" as="geometry" />
        </mxCell>
        <mxCell id="T-pwhXv3p6EA6cjzu4Aj-12" value="&lt;span style=&quot;color: rgb(0, 0, 0); font-family: Helvetica; font-size: 14px; font-style: normal; font-variant-ligatures: normal; font-variant-caps: normal; font-weight: 400; letter-spacing: normal; orphans: 2; text-align: center; text-indent: 0px; text-transform: none; widows: 2; word-spacing: 0px; -webkit-text-stroke-width: 0px; background-color: rgb(248, 249, 250); text-decoration-thickness: initial; text-decoration-style: initial; text-decoration-color: initial; float: none; display: inline !important;&quot;&gt;Objective&lt;/span&gt;" style="rounded=1;whiteSpace=wrap;html=1;fontSize=14;" parent="1" vertex="1">
          <mxGeometry x="40" y="150" width="120" height="40" as="geometry" />
        </mxCell>
        <mxCell id="2M_V4ClDC-BP4bTIay96-6" value="" style="rounded=1;whiteSpace=wrap;html=1;fontSize=14;container=1;strokeColor=none;collapsible=0;recursiveResize=0;fillColor=none;" parent="1" vertex="1">
          <mxGeometry x="780" y="230" width="120" height="60" as="geometry" />
        </mxCell>
        <mxCell id="2M_V4ClDC-BP4bTIay96-7" value="" style="verticalLabelPosition=bottom;verticalAlign=top;html=1;shape=mxgraph.basic.cone2;dx=0.5;dy=0.9;recursiveResize=0;fillColor=#000000;" parent="2M_V4ClDC-BP4bTIay96-6" vertex="1">
          <mxGeometry x="50" y="40" width="20" height="20" as="geometry" />
        </mxCell>
        <mxCell id="2M_V4ClDC-BP4bTIay96-1" value="&lt;span style=&quot;color: rgb(0, 0, 0); font-family: Helvetica; font-size: 14px; font-style: normal; font-variant-ligatures: normal; font-variant-caps: normal; font-weight: 400; letter-spacing: normal; orphans: 2; text-align: center; text-indent: 0px; text-transform: none; widows: 2; word-spacing: 0px; -webkit-text-stroke-width: 0px; background-color: rgb(248, 249, 250); text-decoration-thickness: initial; text-decoration-style: initial; text-decoration-color: initial; float: none; display: inline !important;&quot;&gt;Observation Mechanism&lt;/span&gt;" style="rounded=1;whiteSpace=wrap;html=1;fontSize=14;" parent="2M_V4ClDC-BP4bTIay96-6" vertex="1">
          <mxGeometry x="10" width="100" height="40" as="geometry" />
        </mxCell>
        <mxCell id="2M_V4ClDC-BP4bTIay96-9" style="edgeStyle=none;rounded=1;orthogonalLoop=1;jettySize=auto;html=1;strokeWidth=2;fontSize=14;endArrow=none;endFill=0;endSize=6;sourcePerimeterSpacing=0;targetPerimeterSpacing=0;noEdgeStyle=1;orthogonal=1;" parent="1" source="2M_V4ClDC-BP4bTIay96-7" target="2M_V4ClDC-BP4bTIay96-3" edge="1">
          <mxGeometry relative="1" as="geometry">
            <mxPoint x="450" y="220" as="sourcePoint" />
            <mxPoint x="760" y="500" as="targetPoint" />
          </mxGeometry>
        </mxCell>
        <mxCell id="2M_V4ClDC-BP4bTIay96-10" style="edgeStyle=none;rounded=1;orthogonalLoop=1;jettySize=auto;html=1;strokeWidth=2;fontSize=14;endArrow=none;endFill=0;endSize=6;sourcePerimeterSpacing=0;targetPerimeterSpacing=0;noEdgeStyle=1;orthogonal=1;" parent="1" source="2M_V4ClDC-BP4bTIay96-7" target="-mLf3_-rgt-RQV-A_lTv-1" edge="1">
          <mxGeometry relative="1" as="geometry">
            <mxPoint x="715" y="220" as="sourcePoint" />
            <mxPoint x="830" y="510" as="targetPoint" />
          </mxGeometry>
        </mxCell>
        <mxCell id="2M_V4ClDC-BP4bTIay96-8" value="Evaluation&lt;br&gt;Criteria" style="rounded=1;whiteSpace=wrap;html=1;fontSize=14;" parent="1" vertex="1">
          <mxGeometry x="660" y="150" width="120" height="40" as="geometry" />
        </mxCell>
        <mxCell id="XICLtj1YiJ0U6KjELkxg-3" value="Environment" style="rounded=1;whiteSpace=wrap;html=1;fontSize=14;" parent="1" vertex="1">
          <mxGeometry x="245" y="230" width="110" height="40" as="geometry" />
        </mxCell>
        <mxCell id="T-pwhXv3p6EA6cjzu4Aj-15" value="Scenario Definition" style="rounded=1;whiteSpace=wrap;html=1;fontSize=14;" parent="1" vertex="1">
          <mxGeometry x="260" y="150" width="140" height="40" as="geometry" />
        </mxCell>
        <mxCell id="2M_V4ClDC-BP4bTIay96-11" style="rounded=1;orthogonalLoop=1;jettySize=auto;html=1;fontSize=14;endArrow=oval;endFill=1;strokeWidth=2;sourcePerimeterSpacing=0;targetPerimeterSpacing=4;endSize=8;noEdgeStyle=1;orthogonal=1;" parent="1" source="T-pwhXv3p6EA6cjzu4Aj-15" target="J-1FAMz3SUVpt_T2eCSc-1" edge="1">
          <mxGeometry relative="1" as="geometry">
            <Array as="points">
              <mxPoint x="280" y="200" />
              <mxPoint x="150" y="210" />
            </Array>
            <mxPoint x="390" y="156" as="targetPoint" />
            <mxPoint x="570" y="100" as="sourcePoint" />
          </mxGeometry>
        </mxCell>
        <mxCell id="2M_V4ClDC-BP4bTIay96-12" style="rounded=1;orthogonalLoop=1;jettySize=auto;html=1;fontSize=14;endArrow=oval;endFill=1;strokeWidth=2;sourcePerimeterSpacing=0;targetPerimeterSpacing=4;endSize=8;noEdgeStyle=1;orthogonal=1;" parent="1" source="T-pwhXv3p6EA6cjzu4Aj-15" target="XICLtj1YiJ0U6KjELkxg-3" edge="1">
          <mxGeometry relative="1" as="geometry">
            <mxPoint x="314" y="226" as="targetPoint" />
            <mxPoint x="365" y="200" as="sourcePoint" />
            <Array as="points">
              <mxPoint x="330" y="200" />
              <mxPoint x="300" y="210" />
            </Array>
          </mxGeometry>
        </mxCell>
        <mxCell id="2M_V4ClDC-BP4bTIay96-13" style="rounded=1;orthogonalLoop=1;jettySize=auto;html=1;fontSize=14;endArrow=oval;endFill=1;strokeWidth=2;sourcePerimeterSpacing=0;targetPerimeterSpacing=4;endSize=8;noEdgeStyle=1;orthogonal=1;" parent="1" source="T-pwhXv3p6EA6cjzu4Aj-15" target="T-pwhXv3p6EA6cjzu4Aj-10" edge="1">
          <mxGeometry relative="1" as="geometry">
            <mxPoint x="430" y="286" as="targetPoint" />
            <mxPoint x="430" y="200" as="sourcePoint" />
            <Array as="points">
              <mxPoint x="380" y="200" />
              <mxPoint x="465" y="210" />
            </Array>
          </mxGeometry>
        </mxCell>
        <mxCell id="2M_V4ClDC-BP4bTIay96-14" style="rounded=1;orthogonalLoop=1;jettySize=auto;html=1;fontSize=14;endArrow=oval;endFill=1;strokeWidth=2;sourcePerimeterSpacing=0;targetPerimeterSpacing=4;endSize=8;noEdgeStyle=1;orthogonal=1;" parent="1" source="XICLtj1YiJ0U6KjELkxg-3" target="XICLtj1YiJ0U6KjELkxg-4" edge="1">
          <mxGeometry relative="1" as="geometry">
            <mxPoint x="366" y="226" as="targetPoint" />
            <mxPoint x="366" y="200" as="sourcePoint" />
            <Array as="points">
              <mxPoint x="280" y="280" />
              <mxPoint x="240" y="290" />
            </Array>
          </mxGeometry>
        </mxCell>
        <mxCell id="2M_V4ClDC-BP4bTIay96-15" style="rounded=1;orthogonalLoop=1;jettySize=auto;html=1;fontSize=14;endArrow=oval;endFill=1;strokeWidth=2;sourcePerimeterSpacing=0;targetPerimeterSpacing=4;endSize=8;noEdgeStyle=1;orthogonal=1;" parent="1" source="XICLtj1YiJ0U6KjELkxg-3" target="XICLtj1YiJ0U6KjELkxg-5" edge="1">
          <mxGeometry relative="1" as="geometry">
            <mxPoint x="304" y="358" as="targetPoint" />
            <mxPoint x="304" y="330" as="sourcePoint" />
            <Array as="points">
              <mxPoint x="320" y="280" />
              <mxPoint x="340" y="290" />
            </Array>
          </mxGeometry>
        </mxCell>
        <mxCell id="2M_V4ClDC-BP4bTIay96-16" style="rounded=1;orthogonalLoop=1;jettySize=auto;html=1;fontSize=14;endArrow=oval;endFill=1;strokeWidth=2;sourcePerimeterSpacing=0;targetPerimeterSpacing=4;endSize=8;noEdgeStyle=1;orthogonal=1;" parent="1" source="2M_V4ClDC-BP4bTIay96-8" target="nnMRLLtBXv7H8IOldzlQ-4" edge="1">
          <mxGeometry relative="1" as="geometry">
            <mxPoint x="640" y="226" as="targetPoint" />
            <mxPoint x="466" y="330" as="sourcePoint" />
            <Array as="points">
              <mxPoint x="680" y="200" />
              <mxPoint x="640" y="210" />
            </Array>
          </mxGeometry>
        </mxCell>
        <mxCell id="2M_V4ClDC-BP4bTIay96-17" style="rounded=1;orthogonalLoop=1;jettySize=auto;html=1;fontSize=14;endArrow=oval;endFill=1;strokeWidth=2;sourcePerimeterSpacing=0;targetPerimeterSpacing=4;endSize=8;noEdgeStyle=1;orthogonal=1;" parent="1" source="2M_V4ClDC-BP4bTIay96-8" target="2M_V4ClDC-BP4bTIay96-1" edge="1">
          <mxGeometry relative="1" as="geometry">
            <mxPoint x="704" y="226" as="targetPoint" />
            <mxPoint x="704" y="200" as="sourcePoint" />
            <Array as="points">
              <mxPoint x="760" y="200" />
              <mxPoint x="840" y="210" />
            </Array>
          </mxGeometry>
        </mxCell>
        <mxCell id="2M_V4ClDC-BP4bTIay96-18" style="rounded=1;orthogonalLoop=1;jettySize=auto;html=1;fontSize=14;endArrow=oval;endFill=1;strokeWidth=2;sourcePerimeterSpacing=0;targetPerimeterSpacing=4;endSize=8;noEdgeStyle=1;orthogonal=1;" parent="1" source="-mLf3_-rgt-RQV-A_lTv-1" target="t9kupKcE2MMrxKV3WQvS-1" edge="1">
          <mxGeometry relative="1" as="geometry">
            <mxPoint x="746" y="226" as="targetPoint" />
            <mxPoint x="746" y="200" as="sourcePoint" />
          </mxGeometry>
        </mxCell>
        <mxCell id="2M_V4ClDC-BP4bTIay96-20" value="" style="rounded=0;whiteSpace=wrap;html=1;container=1;collapsible=0;recursiveResize=0;" parent="1" vertex="1">
          <mxGeometry x="740" y="40" width="220" height="80" as="geometry" />
        </mxCell>
        <mxCell id="2M_V4ClDC-BP4bTIay96-24" value="" style="rounded=0;whiteSpace=wrap;html=1;strokeColor=none;fillColor=none;" parent="2M_V4ClDC-BP4bTIay96-20" vertex="1">
          <mxGeometry y="5" width="10" height="20" as="geometry" />
        </mxCell>
        <mxCell id="2M_V4ClDC-BP4bTIay96-25" value="&lt;font style=&quot;font-size: 10px;&quot;&gt;Mandatory&lt;/font&gt;" style="rounded=0;whiteSpace=wrap;html=1;strokeColor=none;fillColor=none;align=left;spacingLeft=12;" parent="2M_V4ClDC-BP4bTIay96-20" vertex="1">
          <mxGeometry x="40" y="5" width="70" height="20" as="geometry" />
        </mxCell>
        <mxCell id="2M_V4ClDC-BP4bTIay96-23" style="rounded=1;orthogonalLoop=1;jettySize=auto;html=1;fontSize=14;endArrow=oval;endFill=1;strokeWidth=2;sourcePerimeterSpacing=0;targetPerimeterSpacing=4;endSize=8;noEdgeStyle=1;orthogonal=1;" parent="2M_V4ClDC-BP4bTIay96-20" source="2M_V4ClDC-BP4bTIay96-24" target="2M_V4ClDC-BP4bTIay96-25" edge="1">
          <mxGeometry relative="1" as="geometry">
            <mxPoint x="60" y="20" as="targetPoint" />
            <mxPoint x="65" y="40" as="sourcePoint" />
          </mxGeometry>
        </mxCell>
        <mxCell id="2M_V4ClDC-BP4bTIay96-26" value="" style="rounded=0;whiteSpace=wrap;html=1;strokeColor=none;fillColor=none;" parent="2M_V4ClDC-BP4bTIay96-20" vertex="1">
          <mxGeometry x="110" y="5" width="10" height="20" as="geometry" />
        </mxCell>
        <mxCell id="2M_V4ClDC-BP4bTIay96-27" value="&lt;font style=&quot;font-size: 10px;&quot;&gt;Optional&lt;/font&gt;" style="rounded=0;whiteSpace=wrap;html=1;strokeColor=none;fillColor=none;align=left;spacingLeft=12;" parent="2M_V4ClDC-BP4bTIay96-20" vertex="1">
          <mxGeometry x="150" y="5" width="60" height="20" as="geometry" />
        </mxCell>
        <mxCell id="2M_V4ClDC-BP4bTIay96-28" style="rounded=1;orthogonalLoop=1;jettySize=auto;html=1;fontSize=14;endArrow=oval;endFill=0;strokeWidth=2;sourcePerimeterSpacing=0;targetPerimeterSpacing=4;endSize=8;noEdgeStyle=1;orthogonal=1;" parent="2M_V4ClDC-BP4bTIay96-20" source="2M_V4ClDC-BP4bTIay96-26" target="2M_V4ClDC-BP4bTIay96-27" edge="1">
          <mxGeometry relative="1" as="geometry">
            <mxPoint x="-30" as="targetPoint" />
            <mxPoint x="-25" y="20" as="sourcePoint" />
          </mxGeometry>
        </mxCell>
        <mxCell id="2M_V4ClDC-BP4bTIay96-29" value="" style="verticalLabelPosition=bottom;verticalAlign=top;html=1;shape=mxgraph.basic.cone2;dx=0.5;dy=0.9;recursiveResize=0;fillColor=#000000;aspect=fixed;" parent="2M_V4ClDC-BP4bTIay96-20" vertex="1">
          <mxGeometry x="20" y="35" width="20" height="20" as="geometry" />
        </mxCell>
        <mxCell id="2M_V4ClDC-BP4bTIay96-30" value="&lt;font style=&quot;font-size: 10px;&quot;&gt;Or&lt;/font&gt;" style="rounded=0;whiteSpace=wrap;html=1;strokeColor=none;fillColor=none;align=left;spacingLeft=4;" parent="2M_V4ClDC-BP4bTIay96-20" vertex="1">
          <mxGeometry x="50" y="35" width="40" height="20" as="geometry" />
        </mxCell>
        <mxCell id="2M_V4ClDC-BP4bTIay96-31" value="" style="rounded=0;whiteSpace=wrap;html=1;strokeColor=none;fillColor=none;" parent="2M_V4ClDC-BP4bTIay96-20" vertex="1">
          <mxGeometry y="65" width="10" height="10" as="geometry" />
        </mxCell>
        <mxCell id="2M_V4ClDC-BP4bTIay96-32" style="edgeStyle=none;rounded=1;orthogonalLoop=1;jettySize=auto;html=1;strokeWidth=2;fontSize=14;endArrow=none;endFill=0;endSize=6;sourcePerimeterSpacing=0;targetPerimeterSpacing=0;noEdgeStyle=1;orthogonal=1;" parent="2M_V4ClDC-BP4bTIay96-20" source="2M_V4ClDC-BP4bTIay96-29" target="2M_V4ClDC-BP4bTIay96-31" edge="1">
          <mxGeometry relative="1" as="geometry">
            <mxPoint x="20" y="170" as="sourcePoint" />
            <mxPoint x="-40" y="190" as="targetPoint" />
          </mxGeometry>
        </mxCell>
        <mxCell id="2M_V4ClDC-BP4bTIay96-33" value="" style="rounded=0;whiteSpace=wrap;html=1;strokeColor=none;fillColor=none;" parent="2M_V4ClDC-BP4bTIay96-20" vertex="1">
          <mxGeometry x="50" y="65" width="10" height="10" as="geometry" />
        </mxCell>
        <mxCell id="2M_V4ClDC-BP4bTIay96-34" style="edgeStyle=none;rounded=1;orthogonalLoop=1;jettySize=auto;html=1;strokeWidth=2;fontSize=14;endArrow=none;endFill=0;endSize=6;sourcePerimeterSpacing=0;targetPerimeterSpacing=0;noEdgeStyle=1;orthogonal=1;" parent="2M_V4ClDC-BP4bTIay96-20" source="2M_V4ClDC-BP4bTIay96-29" target="2M_V4ClDC-BP4bTIay96-33" edge="1">
          <mxGeometry relative="1" as="geometry">
            <mxPoint x="30" y="55" as="sourcePoint" />
            <mxPoint x="20" y="65" as="targetPoint" />
          </mxGeometry>
        </mxCell>
        <mxCell id="2M_V4ClDC-BP4bTIay96-35" value="" style="verticalLabelPosition=bottom;verticalAlign=top;html=1;shape=mxgraph.basic.cone2;dx=0.5;dy=0.9;recursiveResize=0;fillColor=none;aspect=fixed;" parent="2M_V4ClDC-BP4bTIay96-20" vertex="1">
          <mxGeometry x="130" y="35" width="20" height="20" as="geometry" />
        </mxCell>
        <mxCell id="2M_V4ClDC-BP4bTIay96-36" value="&lt;font style=&quot;font-size: 10px;&quot;&gt;Alternative&lt;/font&gt;" style="rounded=0;whiteSpace=wrap;html=1;strokeColor=none;fillColor=none;align=left;spacingLeft=4;" parent="2M_V4ClDC-BP4bTIay96-20" vertex="1">
          <mxGeometry x="160" y="35" width="60" height="20" as="geometry" />
        </mxCell>
        <mxCell id="2M_V4ClDC-BP4bTIay96-37" value="" style="rounded=0;whiteSpace=wrap;html=1;strokeColor=none;fillColor=none;" parent="2M_V4ClDC-BP4bTIay96-20" vertex="1">
          <mxGeometry x="110" y="65" width="10" height="10" as="geometry" />
        </mxCell>
        <mxCell id="2M_V4ClDC-BP4bTIay96-38" value="" style="rounded=0;whiteSpace=wrap;html=1;strokeColor=none;fillColor=none;" parent="2M_V4ClDC-BP4bTIay96-20" vertex="1">
          <mxGeometry x="160" y="65" width="10" height="10" as="geometry" />
        </mxCell>
        <mxCell id="2M_V4ClDC-BP4bTIay96-39" style="edgeStyle=none;rounded=1;orthogonalLoop=1;jettySize=auto;html=1;strokeWidth=2;fontSize=14;endArrow=none;endFill=0;endSize=6;sourcePerimeterSpacing=0;targetPerimeterSpacing=0;noEdgeStyle=1;orthogonal=1;" parent="2M_V4ClDC-BP4bTIay96-20" source="2M_V4ClDC-BP4bTIay96-35" target="2M_V4ClDC-BP4bTIay96-38" edge="1">
          <mxGeometry relative="1" as="geometry">
            <mxPoint x="50" y="60" as="sourcePoint" />
            <mxPoint x="160" y="60" as="targetPoint" />
          </mxGeometry>
        </mxCell>
        <mxCell id="2M_V4ClDC-BP4bTIay96-40" style="edgeStyle=none;rounded=1;orthogonalLoop=1;jettySize=auto;html=1;strokeWidth=2;fontSize=14;endArrow=none;endFill=0;endSize=6;sourcePerimeterSpacing=0;targetPerimeterSpacing=0;noEdgeStyle=1;orthogonal=1;" parent="2M_V4ClDC-BP4bTIay96-20" source="2M_V4ClDC-BP4bTIay96-35" target="2M_V4ClDC-BP4bTIay96-37" edge="1">
          <mxGeometry relative="1" as="geometry">
            <mxPoint x="160" y="60" as="sourcePoint" />
            <mxPoint x="170" y="70" as="targetPoint" />
          </mxGeometry>
        </mxCell>
        <mxCell id="2M_V4ClDC-BP4bTIay96-21" value="&lt;span style=&quot;color: rgb(0, 0, 0); font-family: Helvetica; font-size: 14px; font-style: normal; font-variant-ligatures: normal; font-variant-caps: normal; font-weight: 400; letter-spacing: normal; orphans: 2; text-align: center; text-indent: 0px; text-transform: none; widows: 2; word-spacing: 0px; -webkit-text-stroke-width: 0px; background-color: rgb(248, 249, 250); text-decoration-thickness: initial; text-decoration-style: initial; text-decoration-color: initial; float: none; display: inline !important;&quot;&gt;Setup Constraints&lt;/span&gt;" style="rounded=1;whiteSpace=wrap;html=1;fontSize=14;" parent="1" vertex="1">
          <mxGeometry x="500" y="370" width="100" height="40" as="geometry" />
        </mxCell>
        <mxCell id="2M_V4ClDC-BP4bTIay96-22" style="rounded=1;orthogonalLoop=1;jettySize=auto;html=1;fontSize=14;endArrow=oval;endFill=1;strokeWidth=2;sourcePerimeterSpacing=0;targetPerimeterSpacing=4;endSize=8;noEdgeStyle=1;orthogonal=1;" parent="1" source="T-pwhXv3p6EA6cjzu4Aj-10" target="2M_V4ClDC-BP4bTIay96-21" edge="1">
          <mxGeometry relative="1" as="geometry">
            <mxPoint x="420" y="316" as="targetPoint" />
            <mxPoint x="350" y="280" as="sourcePoint" />
            <Array as="points">
              <mxPoint x="500" y="280" />
              <mxPoint x="550" y="350" />
            </Array>
          </mxGeometry>
        </mxCell>
        <mxCell id="jicagCcoQXB3vEXKr0UT-1" value="Narrative" style="rounded=1;whiteSpace=wrap;html=1;fontSize=14;" parent="1" vertex="1">
          <mxGeometry x="350" y="370" width="100" height="40" as="geometry" />
        </mxCell>
        <mxCell id="jicagCcoQXB3vEXKr0UT-2" style="rounded=1;orthogonalLoop=1;jettySize=auto;html=1;fontSize=14;endArrow=oval;endFill=1;strokeWidth=2;sourcePerimeterSpacing=0;targetPerimeterSpacing=4;endSize=8;noEdgeStyle=1;orthogonal=1;" parent="1" source="T-pwhXv3p6EA6cjzu4Aj-10" target="jicagCcoQXB3vEXKr0UT-1" edge="1">
          <mxGeometry relative="1" as="geometry">
            <mxPoint x="530" y="316" as="targetPoint" />
            <mxPoint x="475" y="280" as="sourcePoint" />
            <Array as="points">
              <mxPoint x="430" y="280" />
              <mxPoint x="400" y="350" />
            </Array>
          </mxGeometry>
        </mxCell>
        <mxCell id="4by8GoQi_8eVhxj5O4CF-1" value="Variations" style="rounded=1;whiteSpace=wrap;html=1;fontSize=14;" parent="1" vertex="1">
          <mxGeometry x="425" y="310" width="80" height="40" as="geometry" />
        </mxCell>
        <mxCell id="4by8GoQi_8eVhxj5O4CF-2" style="rounded=1;orthogonalLoop=1;jettySize=auto;html=1;fontSize=14;endArrow=oval;endFill=1;strokeWidth=2;sourcePerimeterSpacing=0;targetPerimeterSpacing=4;endSize=8;noEdgeStyle=1;orthogonal=1;" parent="1" source="T-pwhXv3p6EA6cjzu4Aj-10" target="4by8GoQi_8eVhxj5O4CF-1" edge="1">
          <mxGeometry relative="1" as="geometry">
            <mxPoint x="420" y="375.9999999999999" as="targetPoint" />
            <mxPoint x="460" y="280" as="sourcePoint" />
          </mxGeometry>
        </mxCell>
        <mxCell id="4by8GoQi_8eVhxj5O4CF-3" value="&lt;span style=&quot;color: rgb(0, 0, 0); font-family: Helvetica; font-size: 14px; font-style: normal; font-variant-ligatures: normal; font-variant-caps: normal; font-weight: 400; letter-spacing: normal; orphans: 2; text-align: center; text-indent: 0px; text-transform: none; widows: 2; word-spacing: 0px; -webkit-text-stroke-width: 0px; background-color: rgb(248, 249, 250); text-decoration-thickness: initial; text-decoration-style: initial; text-decoration-color: initial; float: none; display: inline !important;&quot;&gt;Functional&lt;/span&gt;" style="rounded=1;whiteSpace=wrap;html=1;fontSize=14;" parent="1" vertex="1">
          <mxGeometry x="550" y="300" width="80" height="40" as="geometry" />
        </mxCell>
        <mxCell id="4by8GoQi_8eVhxj5O4CF-4" value="&lt;span style=&quot;color: rgb(0, 0, 0); font-family: Helvetica; font-size: 14px; font-style: normal; font-variant-ligatures: normal; font-variant-caps: normal; font-weight: 400; letter-spacing: normal; orphans: 2; text-align: center; text-indent: 0px; text-transform: none; widows: 2; word-spacing: 0px; -webkit-text-stroke-width: 0px; background-color: rgb(248, 249, 250); text-decoration-thickness: initial; text-decoration-style: initial; text-decoration-color: initial; float: none; display: inline !important;&quot;&gt;Non-Functional&lt;/span&gt;" style="rounded=1;whiteSpace=wrap;html=1;fontSize=14;" parent="1" vertex="1">
          <mxGeometry x="640" y="300" width="110" height="40" as="geometry" />
        </mxCell>
        <mxCell id="nnMRLLtBXv7H8IOldzlQ-2" value="" style="rounded=1;whiteSpace=wrap;html=1;fontSize=14;container=1;strokeColor=none;collapsible=0;recursiveResize=0;fillColor=none;" parent="1" vertex="1">
          <mxGeometry x="580" y="230" width="120" height="60" as="geometry" />
        </mxCell>
        <mxCell id="nnMRLLtBXv7H8IOldzlQ-3" value="" style="verticalLabelPosition=bottom;verticalAlign=top;html=1;shape=mxgraph.basic.cone2;dx=0.5;dy=0.9;recursiveResize=0;fillColor=#000000;" parent="nnMRLLtBXv7H8IOldzlQ-2" vertex="1">
          <mxGeometry x="50" y="40" width="20" height="20" as="geometry" />
        </mxCell>
        <mxCell id="nnMRLLtBXv7H8IOldzlQ-4" value="&lt;span style=&quot;background-color: rgb(248, 249, 250);&quot;&gt;Quality Aspect&lt;/span&gt;" style="rounded=1;whiteSpace=wrap;html=1;fontSize=14;" parent="nnMRLLtBXv7H8IOldzlQ-2" vertex="1">
          <mxGeometry x="10" width="100" height="40" as="geometry" />
        </mxCell>
        <mxCell id="nnMRLLtBXv7H8IOldzlQ-5" style="edgeStyle=none;rounded=1;orthogonalLoop=1;jettySize=auto;html=1;strokeWidth=2;fontSize=14;endArrow=none;endFill=0;endSize=6;sourcePerimeterSpacing=0;targetPerimeterSpacing=0;noEdgeStyle=1;orthogonal=1;entryX=0.75;entryY=0;entryDx=0;entryDy=0;" parent="1" source="nnMRLLtBXv7H8IOldzlQ-3" target="4by8GoQi_8eVhxj5O4CF-3" edge="1">
          <mxGeometry relative="1" as="geometry">
            <mxPoint x="830" y="300" as="sourcePoint" />
            <mxPoint x="790" y="360" as="targetPoint" />
          </mxGeometry>
        </mxCell>
        <mxCell id="nnMRLLtBXv7H8IOldzlQ-6" style="edgeStyle=none;rounded=1;orthogonalLoop=1;jettySize=auto;html=1;strokeWidth=2;fontSize=14;endArrow=none;endFill=0;endSize=6;sourcePerimeterSpacing=0;targetPerimeterSpacing=0;noEdgeStyle=1;orthogonal=1;entryX=0.25;entryY=0;entryDx=0;entryDy=0;" parent="1" source="nnMRLLtBXv7H8IOldzlQ-3" target="4by8GoQi_8eVhxj5O4CF-4" edge="1">
          <mxGeometry relative="1" as="geometry">
            <mxPoint x="830" y="300" as="sourcePoint" />
            <mxPoint x="790" y="360" as="targetPoint" />
          </mxGeometry>
        </mxCell>
      </root>
    </mxGraphModel>
  </diagram>
  <diagram id="6Ma3tJIdHIvbZ7NCD-Ed" name="current-colored">
    <mxGraphModel dx="1434" dy="854" grid="1" gridSize="10" guides="1" tooltips="1" connect="1" arrows="1" fold="1" page="1" pageScale="1" pageWidth="1169" pageHeight="827" math="0" shadow="0">
      <root>
        <mxCell id="0" />
        <mxCell id="1" parent="0" />
        <mxCell id="5v7NeGWSbQVxWcgzCbkK-1" style="rounded=1;orthogonalLoop=1;jettySize=auto;html=1;fontSize=14;endArrow=oval;endFill=1;strokeWidth=2;sourcePerimeterSpacing=0;targetPerimeterSpacing=4;endSize=8;noEdgeStyle=1;orthogonal=1;" parent="1" source="5v7NeGWSbQVxWcgzCbkK-3" target="5v7NeGWSbQVxWcgzCbkK-24" edge="1">
          <mxGeometry relative="1" as="geometry">
            <Array as="points" />
            <mxPoint x="370" y="216" as="targetPoint" />
          </mxGeometry>
        </mxCell>
        <mxCell id="5v7NeGWSbQVxWcgzCbkK-2" style="rounded=1;orthogonalLoop=1;jettySize=auto;html=1;strokeWidth=2;fontSize=14;endArrow=oval;endFill=1;endSize=8;sourcePerimeterSpacing=0;targetPerimeterSpacing=4;noEdgeStyle=1;orthogonal=1;" parent="1" source="5v7NeGWSbQVxWcgzCbkK-3" target="5v7NeGWSbQVxWcgzCbkK-22" edge="1">
          <mxGeometry relative="1" as="geometry">
            <Array as="points">
              <mxPoint x="400" y="100" />
              <mxPoint x="720" y="130" />
            </Array>
            <mxPoint x="660" y="145.9999999999999" as="targetPoint" />
          </mxGeometry>
        </mxCell>
        <mxCell id="5v7NeGWSbQVxWcgzCbkK-3" value="Competition Specification" style="rounded=1;whiteSpace=wrap;html=1;fontSize=14;fillColor=#f5f5f5;fontColor=#333333;strokeColor=#666666;" parent="1" vertex="1">
          <mxGeometry x="240" y="40" width="180" height="50" as="geometry" />
        </mxCell>
        <mxCell id="5v7NeGWSbQVxWcgzCbkK-4" style="edgeStyle=none;rounded=1;orthogonalLoop=1;jettySize=auto;html=1;strokeWidth=2;fontSize=14;endArrow=oval;endFill=0;endSize=8;sourcePerimeterSpacing=0;targetPerimeterSpacing=4;noEdgeStyle=1;orthogonal=1;" parent="1" source="5v7NeGWSbQVxWcgzCbkK-3" target="5v7NeGWSbQVxWcgzCbkK-16" edge="1">
          <mxGeometry relative="1" as="geometry">
            <Array as="points">
              <mxPoint x="260" y="100" />
              <mxPoint x="100" y="130" />
            </Array>
            <mxPoint x="646.25" y="100" as="sourcePoint" />
            <mxPoint x="860" y="216" as="targetPoint" />
          </mxGeometry>
        </mxCell>
        <mxCell id="5v7NeGWSbQVxWcgzCbkK-5" value="System under Test" style="rounded=1;whiteSpace=wrap;html=1;fontSize=14;fillColor=#f5f5f5;strokeColor=#666666;fontColor=#333333;" parent="1" vertex="1">
          <mxGeometry x="40" y="310" width="110" height="40" as="geometry" />
        </mxCell>
        <mxCell id="5v7NeGWSbQVxWcgzCbkK-6" style="rounded=1;orthogonalLoop=1;jettySize=auto;html=1;strokeWidth=2;fontSize=14;endArrow=oval;endFill=1;endSize=8;sourcePerimeterSpacing=0;targetPerimeterSpacing=4;noEdgeStyle=1;orthogonal=1;" parent="1" source="5v7NeGWSbQVxWcgzCbkK-10" target="5v7NeGWSbQVxWcgzCbkK-5" edge="1">
          <mxGeometry relative="1" as="geometry">
            <mxPoint x="745.9999999999998" y="165.9999999999999" as="targetPoint" />
            <mxPoint x="630" y="80" as="sourcePoint" />
            <Array as="points">
              <mxPoint x="130" y="280" />
              <mxPoint x="95" y="290" />
            </Array>
          </mxGeometry>
        </mxCell>
        <mxCell id="5v7NeGWSbQVxWcgzCbkK-7" value="Actor (human or machine)" style="rounded=1;whiteSpace=wrap;html=1;fontSize=14;fillColor=#f5f5f5;strokeColor=#666666;fontColor=#333333;" parent="1" vertex="1">
          <mxGeometry x="120" y="370" width="120" height="40" as="geometry" />
        </mxCell>
        <mxCell id="5v7NeGWSbQVxWcgzCbkK-8" value="Task" style="rounded=1;whiteSpace=wrap;html=1;fontSize=14;fillColor=#fff2cc;strokeColor=#E8AE00;" parent="1" vertex="1">
          <mxGeometry x="420" y="230" width="90" height="40" as="geometry" />
        </mxCell>
        <mxCell id="5v7NeGWSbQVxWcgzCbkK-9" style="rounded=1;orthogonalLoop=1;jettySize=auto;html=1;strokeWidth=2;fontSize=14;endArrow=oval;endFill=0;endSize=8;sourcePerimeterSpacing=0;targetPerimeterSpacing=4;noEdgeStyle=1;orthogonal=1;" parent="1" source="5v7NeGWSbQVxWcgzCbkK-10" target="5v7NeGWSbQVxWcgzCbkK-7" edge="1">
          <mxGeometry relative="1" as="geometry">
            <mxPoint x="684" y="245.9999999999999" as="targetPoint" />
            <mxPoint x="750" y="210" as="sourcePoint" />
            <Array as="points">
              <mxPoint x="170" y="290" />
              <mxPoint x="180" y="350" />
            </Array>
          </mxGeometry>
        </mxCell>
        <mxCell id="5v7NeGWSbQVxWcgzCbkK-10" value="Agent" style="rounded=1;whiteSpace=wrap;html=1;fontSize=14;fillColor=#94D1E0;strokeColor=#0097a7;" parent="1" vertex="1">
          <mxGeometry x="110" y="230" width="80" height="40" as="geometry" />
        </mxCell>
        <mxCell id="5v7NeGWSbQVxWcgzCbkK-11" value="&lt;span style=&quot;color: rgb(0, 0, 0); font-family: Helvetica; font-size: 14px; font-style: normal; font-variant-ligatures: normal; font-variant-caps: normal; font-weight: 400; letter-spacing: normal; orphans: 2; text-align: center; text-indent: 0px; text-transform: none; widows: 2; word-spacing: 0px; -webkit-text-stroke-width: 0px; text-decoration-thickness: initial; text-decoration-style: initial; text-decoration-color: initial; float: none; display: inline !important;&quot;&gt;Objects&lt;/span&gt;" style="rounded=1;whiteSpace=wrap;html=1;fontSize=14;fillColor=#f5f5f5;strokeColor=#666666;labelBackgroundColor=none;fontColor=#333333;" parent="1" vertex="1">
          <mxGeometry x="200" y="310" width="80" height="40" as="geometry" />
        </mxCell>
        <mxCell id="5v7NeGWSbQVxWcgzCbkK-12" value="&lt;span style=&quot;color: rgb(0, 0, 0); font-family: Helvetica; font-size: 14px; font-style: normal; font-variant-ligatures: normal; font-variant-caps: normal; font-weight: 400; letter-spacing: normal; orphans: 2; text-align: center; text-indent: 0px; text-transform: none; widows: 2; word-spacing: 0px; -webkit-text-stroke-width: 0px; text-decoration-thickness: initial; text-decoration-style: initial; text-decoration-color: initial; float: none; display: inline !important;&quot;&gt;Workspace&lt;/span&gt;" style="rounded=1;whiteSpace=wrap;html=1;fontSize=14;fillColor=#f5f5f5;strokeColor=#666666;labelBackgroundColor=none;fontColor=#333333;" parent="1" vertex="1">
          <mxGeometry x="290" y="310" width="100" height="40" as="geometry" />
        </mxCell>
        <mxCell id="5v7NeGWSbQVxWcgzCbkK-13" value="&lt;span style=&quot;color: rgb(0, 0, 0); font-family: Helvetica; font-size: 14px; font-style: normal; font-variant-ligatures: normal; font-variant-caps: normal; font-weight: 400; letter-spacing: normal; orphans: 2; text-align: center; text-indent: 0px; text-transform: none; widows: 2; word-spacing: 0px; -webkit-text-stroke-width: 0px; background-color: rgb(248, 249, 250); text-decoration-thickness: initial; text-decoration-style: initial; text-decoration-color: initial; float: none; display: inline !important;&quot;&gt;data requirements&lt;/span&gt;" style="rounded=1;whiteSpace=wrap;html=1;fontSize=14;fillColor=#f5f5f5;fontColor=#333333;strokeColor=#666666;" parent="1" vertex="1">
          <mxGeometry x="860" y="370" width="100" height="40" as="geometry" />
        </mxCell>
        <mxCell id="5v7NeGWSbQVxWcgzCbkK-14" value="&lt;span style=&quot;color: rgb(0, 0, 0); font-family: Helvetica; font-size: 14px; font-style: normal; font-variant-ligatures: normal; font-variant-caps: normal; font-weight: 400; letter-spacing: normal; orphans: 2; text-align: center; text-indent: 0px; text-transform: none; widows: 2; word-spacing: 0px; -webkit-text-stroke-width: 0px; background-color: rgb(248, 249, 250); text-decoration-thickness: initial; text-decoration-style: initial; text-decoration-color: initial; float: none; display: inline !important;&quot;&gt;automated&lt;/span&gt;" style="rounded=1;whiteSpace=wrap;html=1;fontSize=14;fillColor=#f5f5f5;fontColor=#333333;strokeColor=#666666;" parent="1" vertex="1">
          <mxGeometry x="860" y="310" width="100" height="40" as="geometry" />
        </mxCell>
        <mxCell id="5v7NeGWSbQVxWcgzCbkK-15" value="&lt;span style=&quot;color: rgb(0, 0, 0); font-family: Helvetica; font-size: 14px; font-style: normal; font-variant-ligatures: normal; font-variant-caps: normal; font-weight: 400; letter-spacing: normal; orphans: 2; text-align: center; text-indent: 0px; text-transform: none; widows: 2; word-spacing: 0px; -webkit-text-stroke-width: 0px; background-color: rgb(248, 249, 250); text-decoration-thickness: initial; text-decoration-style: initial; text-decoration-color: initial; float: none; display: inline !important;&quot;&gt;non-automated (i.e. human)&lt;/span&gt;" style="rounded=1;whiteSpace=wrap;html=1;fontSize=14;fillColor=#f5f5f5;fontColor=#333333;strokeColor=#666666;" parent="1" vertex="1">
          <mxGeometry x="680" y="350" width="120" height="40" as="geometry" />
        </mxCell>
        <mxCell id="5v7NeGWSbQVxWcgzCbkK-16" value="&lt;span style=&quot;color: rgb(0, 0, 0); font-family: Helvetica; font-size: 14px; font-style: normal; font-variant-ligatures: normal; font-variant-caps: normal; font-weight: 400; letter-spacing: normal; orphans: 2; text-align: center; text-indent: 0px; text-transform: none; widows: 2; word-spacing: 0px; -webkit-text-stroke-width: 0px; background-color: rgb(248, 249, 250); text-decoration-thickness: initial; text-decoration-style: initial; text-decoration-color: initial; float: none; display: inline !important;&quot;&gt;Objective&lt;/span&gt;" style="rounded=1;whiteSpace=wrap;html=1;fontSize=14;fillColor=#f5f5f5;fontColor=#333333;strokeColor=#666666;" parent="1" vertex="1">
          <mxGeometry x="40" y="150" width="120" height="40" as="geometry" />
        </mxCell>
        <mxCell id="5v7NeGWSbQVxWcgzCbkK-17" value="" style="rounded=1;whiteSpace=wrap;html=1;fontSize=14;container=1;strokeColor=none;collapsible=0;recursiveResize=0;fillColor=none;" parent="1" vertex="1">
          <mxGeometry x="780" y="230" width="120" height="60" as="geometry" />
        </mxCell>
        <mxCell id="5v7NeGWSbQVxWcgzCbkK-18" value="" style="verticalLabelPosition=bottom;verticalAlign=top;html=1;shape=mxgraph.basic.cone2;dx=0.5;dy=0.9;recursiveResize=0;fillColor=#000000;" parent="5v7NeGWSbQVxWcgzCbkK-17" vertex="1">
          <mxGeometry x="50" y="40" width="20" height="20" as="geometry" />
        </mxCell>
        <mxCell id="5v7NeGWSbQVxWcgzCbkK-19" value="&lt;span style=&quot;color: rgb(0, 0, 0); font-family: Helvetica; font-size: 14px; font-style: normal; font-variant-ligatures: normal; font-variant-caps: normal; font-weight: 400; letter-spacing: normal; orphans: 2; text-align: center; text-indent: 0px; text-transform: none; widows: 2; word-spacing: 0px; -webkit-text-stroke-width: 0px; background-color: rgb(248, 249, 250); text-decoration-thickness: initial; text-decoration-style: initial; text-decoration-color: initial; float: none; display: inline !important;&quot;&gt;Observation Mechanism&lt;/span&gt;" style="rounded=1;whiteSpace=wrap;html=1;fontSize=14;fillColor=#f5f5f5;fontColor=#333333;strokeColor=#666666;" parent="5v7NeGWSbQVxWcgzCbkK-17" vertex="1">
          <mxGeometry x="10" width="100" height="40" as="geometry" />
        </mxCell>
        <mxCell id="5v7NeGWSbQVxWcgzCbkK-20" style="edgeStyle=none;rounded=1;orthogonalLoop=1;jettySize=auto;html=1;strokeWidth=2;fontSize=14;endArrow=none;endFill=0;endSize=6;sourcePerimeterSpacing=0;targetPerimeterSpacing=0;noEdgeStyle=1;orthogonal=1;" parent="1" source="5v7NeGWSbQVxWcgzCbkK-18" target="5v7NeGWSbQVxWcgzCbkK-15" edge="1">
          <mxGeometry relative="1" as="geometry">
            <mxPoint x="450" y="220" as="sourcePoint" />
            <mxPoint x="760" y="500" as="targetPoint" />
          </mxGeometry>
        </mxCell>
        <mxCell id="5v7NeGWSbQVxWcgzCbkK-21" style="edgeStyle=none;rounded=1;orthogonalLoop=1;jettySize=auto;html=1;strokeWidth=2;fontSize=14;endArrow=none;endFill=0;endSize=6;sourcePerimeterSpacing=0;targetPerimeterSpacing=0;noEdgeStyle=1;orthogonal=1;" parent="1" source="5v7NeGWSbQVxWcgzCbkK-18" target="5v7NeGWSbQVxWcgzCbkK-14" edge="1">
          <mxGeometry relative="1" as="geometry">
            <mxPoint x="715" y="220" as="sourcePoint" />
            <mxPoint x="830" y="510" as="targetPoint" />
          </mxGeometry>
        </mxCell>
        <mxCell id="5v7NeGWSbQVxWcgzCbkK-22" value="Evaluation&lt;br&gt;Criteria" style="rounded=1;whiteSpace=wrap;html=1;fontSize=14;fillColor=#f8cecc;strokeColor=#b85450;" parent="1" vertex="1">
          <mxGeometry x="660" y="150" width="120" height="40" as="geometry" />
        </mxCell>
        <mxCell id="5v7NeGWSbQVxWcgzCbkK-23" value="Environment" style="rounded=1;whiteSpace=wrap;html=1;fontSize=14;fillColor=#d5e8d4;strokeColor=#82b366;" parent="1" vertex="1">
          <mxGeometry x="245" y="230" width="110" height="40" as="geometry" />
        </mxCell>
        <mxCell id="5v7NeGWSbQVxWcgzCbkK-24" value="Scenario Definition" style="rounded=1;whiteSpace=wrap;html=1;fontSize=14;fillColor=#f5f5f5;fontColor=#333333;strokeColor=#666666;" parent="1" vertex="1">
          <mxGeometry x="260" y="150" width="140" height="40" as="geometry" />
        </mxCell>
        <mxCell id="5v7NeGWSbQVxWcgzCbkK-25" style="rounded=1;orthogonalLoop=1;jettySize=auto;html=1;fontSize=14;endArrow=oval;endFill=1;strokeWidth=2;sourcePerimeterSpacing=0;targetPerimeterSpacing=4;endSize=8;noEdgeStyle=1;orthogonal=1;" parent="1" source="5v7NeGWSbQVxWcgzCbkK-24" target="5v7NeGWSbQVxWcgzCbkK-10" edge="1">
          <mxGeometry relative="1" as="geometry">
            <Array as="points">
              <mxPoint x="280" y="200" />
              <mxPoint x="150" y="210" />
            </Array>
            <mxPoint x="390" y="156" as="targetPoint" />
            <mxPoint x="570" y="100" as="sourcePoint" />
          </mxGeometry>
        </mxCell>
        <mxCell id="5v7NeGWSbQVxWcgzCbkK-26" style="rounded=1;orthogonalLoop=1;jettySize=auto;html=1;fontSize=14;endArrow=oval;endFill=1;strokeWidth=2;sourcePerimeterSpacing=0;targetPerimeterSpacing=4;endSize=8;noEdgeStyle=1;orthogonal=1;" parent="1" source="5v7NeGWSbQVxWcgzCbkK-24" target="5v7NeGWSbQVxWcgzCbkK-23" edge="1">
          <mxGeometry relative="1" as="geometry">
            <mxPoint x="314" y="226" as="targetPoint" />
            <mxPoint x="365" y="200" as="sourcePoint" />
            <Array as="points">
              <mxPoint x="330" y="200" />
              <mxPoint x="300" y="210" />
            </Array>
          </mxGeometry>
        </mxCell>
        <mxCell id="5v7NeGWSbQVxWcgzCbkK-27" style="rounded=1;orthogonalLoop=1;jettySize=auto;html=1;fontSize=14;endArrow=oval;endFill=1;strokeWidth=2;sourcePerimeterSpacing=0;targetPerimeterSpacing=4;endSize=8;noEdgeStyle=1;orthogonal=1;" parent="1" source="5v7NeGWSbQVxWcgzCbkK-24" target="5v7NeGWSbQVxWcgzCbkK-8" edge="1">
          <mxGeometry relative="1" as="geometry">
            <mxPoint x="430" y="286" as="targetPoint" />
            <mxPoint x="430" y="200" as="sourcePoint" />
            <Array as="points">
              <mxPoint x="380" y="200" />
              <mxPoint x="465" y="210" />
            </Array>
          </mxGeometry>
        </mxCell>
        <mxCell id="5v7NeGWSbQVxWcgzCbkK-28" style="rounded=1;orthogonalLoop=1;jettySize=auto;html=1;fontSize=14;endArrow=oval;endFill=1;strokeWidth=2;sourcePerimeterSpacing=0;targetPerimeterSpacing=4;endSize=8;noEdgeStyle=1;orthogonal=1;" parent="1" source="5v7NeGWSbQVxWcgzCbkK-23" target="5v7NeGWSbQVxWcgzCbkK-11" edge="1">
          <mxGeometry relative="1" as="geometry">
            <mxPoint x="366" y="226" as="targetPoint" />
            <mxPoint x="366" y="200" as="sourcePoint" />
            <Array as="points">
              <mxPoint x="280" y="280" />
              <mxPoint x="240" y="290" />
            </Array>
          </mxGeometry>
        </mxCell>
        <mxCell id="5v7NeGWSbQVxWcgzCbkK-29" style="rounded=1;orthogonalLoop=1;jettySize=auto;html=1;fontSize=14;endArrow=oval;endFill=1;strokeWidth=2;sourcePerimeterSpacing=0;targetPerimeterSpacing=4;endSize=8;noEdgeStyle=1;orthogonal=1;" parent="1" source="5v7NeGWSbQVxWcgzCbkK-23" target="5v7NeGWSbQVxWcgzCbkK-12" edge="1">
          <mxGeometry relative="1" as="geometry">
            <mxPoint x="304" y="358" as="targetPoint" />
            <mxPoint x="304" y="330" as="sourcePoint" />
            <Array as="points">
              <mxPoint x="320" y="280" />
              <mxPoint x="340" y="290" />
            </Array>
          </mxGeometry>
        </mxCell>
        <mxCell id="5v7NeGWSbQVxWcgzCbkK-30" style="rounded=1;orthogonalLoop=1;jettySize=auto;html=1;fontSize=14;endArrow=oval;endFill=1;strokeWidth=2;sourcePerimeterSpacing=0;targetPerimeterSpacing=4;endSize=8;noEdgeStyle=1;orthogonal=1;" parent="1" source="5v7NeGWSbQVxWcgzCbkK-22" target="5v7NeGWSbQVxWcgzCbkK-62" edge="1">
          <mxGeometry relative="1" as="geometry">
            <mxPoint x="640" y="226" as="targetPoint" />
            <mxPoint x="466" y="330" as="sourcePoint" />
            <Array as="points">
              <mxPoint x="680" y="200" />
              <mxPoint x="640" y="210" />
            </Array>
          </mxGeometry>
        </mxCell>
        <mxCell id="5v7NeGWSbQVxWcgzCbkK-31" style="rounded=1;orthogonalLoop=1;jettySize=auto;html=1;fontSize=14;endArrow=oval;endFill=1;strokeWidth=2;sourcePerimeterSpacing=0;targetPerimeterSpacing=4;endSize=8;noEdgeStyle=1;orthogonal=1;" parent="1" source="5v7NeGWSbQVxWcgzCbkK-22" target="5v7NeGWSbQVxWcgzCbkK-19" edge="1">
          <mxGeometry relative="1" as="geometry">
            <mxPoint x="704" y="226" as="targetPoint" />
            <mxPoint x="704" y="200" as="sourcePoint" />
            <Array as="points">
              <mxPoint x="760" y="200" />
              <mxPoint x="840" y="210" />
            </Array>
          </mxGeometry>
        </mxCell>
        <mxCell id="5v7NeGWSbQVxWcgzCbkK-32" style="rounded=1;orthogonalLoop=1;jettySize=auto;html=1;fontSize=14;endArrow=oval;endFill=1;strokeWidth=2;sourcePerimeterSpacing=0;targetPerimeterSpacing=4;endSize=8;noEdgeStyle=1;orthogonal=1;" parent="1" source="5v7NeGWSbQVxWcgzCbkK-14" target="5v7NeGWSbQVxWcgzCbkK-13" edge="1">
          <mxGeometry relative="1" as="geometry">
            <mxPoint x="746" y="226" as="targetPoint" />
            <mxPoint x="746" y="200" as="sourcePoint" />
          </mxGeometry>
        </mxCell>
        <mxCell id="5v7NeGWSbQVxWcgzCbkK-33" value="" style="rounded=0;whiteSpace=wrap;html=1;container=1;collapsible=0;recursiveResize=0;" parent="1" vertex="1">
          <mxGeometry x="740" y="40" width="220" height="80" as="geometry" />
        </mxCell>
        <mxCell id="5v7NeGWSbQVxWcgzCbkK-34" value="" style="rounded=0;whiteSpace=wrap;html=1;strokeColor=none;fillColor=none;" parent="5v7NeGWSbQVxWcgzCbkK-33" vertex="1">
          <mxGeometry y="5" width="10" height="20" as="geometry" />
        </mxCell>
        <mxCell id="5v7NeGWSbQVxWcgzCbkK-35" value="&lt;font style=&quot;font-size: 10px;&quot;&gt;Mandatory&lt;/font&gt;" style="rounded=0;whiteSpace=wrap;html=1;strokeColor=none;fillColor=none;align=left;spacingLeft=12;" parent="5v7NeGWSbQVxWcgzCbkK-33" vertex="1">
          <mxGeometry x="40" y="5" width="70" height="20" as="geometry" />
        </mxCell>
        <mxCell id="5v7NeGWSbQVxWcgzCbkK-36" style="rounded=1;orthogonalLoop=1;jettySize=auto;html=1;fontSize=14;endArrow=oval;endFill=1;strokeWidth=2;sourcePerimeterSpacing=0;targetPerimeterSpacing=4;endSize=8;noEdgeStyle=1;orthogonal=1;" parent="5v7NeGWSbQVxWcgzCbkK-33" source="5v7NeGWSbQVxWcgzCbkK-34" target="5v7NeGWSbQVxWcgzCbkK-35" edge="1">
          <mxGeometry relative="1" as="geometry">
            <mxPoint x="60" y="20" as="targetPoint" />
            <mxPoint x="65" y="40" as="sourcePoint" />
          </mxGeometry>
        </mxCell>
        <mxCell id="5v7NeGWSbQVxWcgzCbkK-37" value="" style="rounded=0;whiteSpace=wrap;html=1;strokeColor=none;fillColor=none;" parent="5v7NeGWSbQVxWcgzCbkK-33" vertex="1">
          <mxGeometry x="110" y="5" width="10" height="20" as="geometry" />
        </mxCell>
        <mxCell id="5v7NeGWSbQVxWcgzCbkK-38" value="&lt;font style=&quot;font-size: 10px;&quot;&gt;Optional&lt;/font&gt;" style="rounded=0;whiteSpace=wrap;html=1;strokeColor=none;fillColor=none;align=left;spacingLeft=12;" parent="5v7NeGWSbQVxWcgzCbkK-33" vertex="1">
          <mxGeometry x="150" y="5" width="60" height="20" as="geometry" />
        </mxCell>
        <mxCell id="5v7NeGWSbQVxWcgzCbkK-39" style="rounded=1;orthogonalLoop=1;jettySize=auto;html=1;fontSize=14;endArrow=oval;endFill=0;strokeWidth=2;sourcePerimeterSpacing=0;targetPerimeterSpacing=4;endSize=8;noEdgeStyle=1;orthogonal=1;" parent="5v7NeGWSbQVxWcgzCbkK-33" source="5v7NeGWSbQVxWcgzCbkK-37" target="5v7NeGWSbQVxWcgzCbkK-38" edge="1">
          <mxGeometry relative="1" as="geometry">
            <mxPoint x="-30" as="targetPoint" />
            <mxPoint x="-25" y="20" as="sourcePoint" />
          </mxGeometry>
        </mxCell>
        <mxCell id="5v7NeGWSbQVxWcgzCbkK-40" value="" style="verticalLabelPosition=bottom;verticalAlign=top;html=1;shape=mxgraph.basic.cone2;dx=0.5;dy=0.9;recursiveResize=0;fillColor=#000000;aspect=fixed;" parent="5v7NeGWSbQVxWcgzCbkK-33" vertex="1">
          <mxGeometry x="20" y="35" width="20" height="20" as="geometry" />
        </mxCell>
        <mxCell id="5v7NeGWSbQVxWcgzCbkK-41" value="&lt;font style=&quot;font-size: 10px;&quot;&gt;Or&lt;/font&gt;" style="rounded=0;whiteSpace=wrap;html=1;strokeColor=none;fillColor=none;align=left;spacingLeft=4;" parent="5v7NeGWSbQVxWcgzCbkK-33" vertex="1">
          <mxGeometry x="50" y="35" width="40" height="20" as="geometry" />
        </mxCell>
        <mxCell id="5v7NeGWSbQVxWcgzCbkK-42" value="" style="rounded=0;whiteSpace=wrap;html=1;strokeColor=none;fillColor=none;" parent="5v7NeGWSbQVxWcgzCbkK-33" vertex="1">
          <mxGeometry y="65" width="10" height="10" as="geometry" />
        </mxCell>
        <mxCell id="5v7NeGWSbQVxWcgzCbkK-43" style="edgeStyle=none;rounded=1;orthogonalLoop=1;jettySize=auto;html=1;strokeWidth=2;fontSize=14;endArrow=none;endFill=0;endSize=6;sourcePerimeterSpacing=0;targetPerimeterSpacing=0;noEdgeStyle=1;orthogonal=1;" parent="5v7NeGWSbQVxWcgzCbkK-33" source="5v7NeGWSbQVxWcgzCbkK-40" target="5v7NeGWSbQVxWcgzCbkK-42" edge="1">
          <mxGeometry relative="1" as="geometry">
            <mxPoint x="20" y="170" as="sourcePoint" />
            <mxPoint x="-40" y="190" as="targetPoint" />
          </mxGeometry>
        </mxCell>
        <mxCell id="5v7NeGWSbQVxWcgzCbkK-44" value="" style="rounded=0;whiteSpace=wrap;html=1;strokeColor=none;fillColor=none;" parent="5v7NeGWSbQVxWcgzCbkK-33" vertex="1">
          <mxGeometry x="50" y="65" width="10" height="10" as="geometry" />
        </mxCell>
        <mxCell id="5v7NeGWSbQVxWcgzCbkK-45" style="edgeStyle=none;rounded=1;orthogonalLoop=1;jettySize=auto;html=1;strokeWidth=2;fontSize=14;endArrow=none;endFill=0;endSize=6;sourcePerimeterSpacing=0;targetPerimeterSpacing=0;noEdgeStyle=1;orthogonal=1;" parent="5v7NeGWSbQVxWcgzCbkK-33" source="5v7NeGWSbQVxWcgzCbkK-40" target="5v7NeGWSbQVxWcgzCbkK-44" edge="1">
          <mxGeometry relative="1" as="geometry">
            <mxPoint x="30" y="55" as="sourcePoint" />
            <mxPoint x="20" y="65" as="targetPoint" />
          </mxGeometry>
        </mxCell>
        <mxCell id="5v7NeGWSbQVxWcgzCbkK-46" value="" style="verticalLabelPosition=bottom;verticalAlign=top;html=1;shape=mxgraph.basic.cone2;dx=0.5;dy=0.9;recursiveResize=0;fillColor=none;aspect=fixed;" parent="5v7NeGWSbQVxWcgzCbkK-33" vertex="1">
          <mxGeometry x="130" y="35" width="20" height="20" as="geometry" />
        </mxCell>
        <mxCell id="5v7NeGWSbQVxWcgzCbkK-47" value="&lt;font style=&quot;font-size: 10px;&quot;&gt;Alternative&lt;/font&gt;" style="rounded=0;whiteSpace=wrap;html=1;strokeColor=none;fillColor=none;align=left;spacingLeft=4;" parent="5v7NeGWSbQVxWcgzCbkK-33" vertex="1">
          <mxGeometry x="160" y="35" width="60" height="20" as="geometry" />
        </mxCell>
        <mxCell id="5v7NeGWSbQVxWcgzCbkK-48" value="" style="rounded=0;whiteSpace=wrap;html=1;strokeColor=none;fillColor=none;" parent="5v7NeGWSbQVxWcgzCbkK-33" vertex="1">
          <mxGeometry x="110" y="65" width="10" height="10" as="geometry" />
        </mxCell>
        <mxCell id="5v7NeGWSbQVxWcgzCbkK-49" value="" style="rounded=0;whiteSpace=wrap;html=1;strokeColor=none;fillColor=none;" parent="5v7NeGWSbQVxWcgzCbkK-33" vertex="1">
          <mxGeometry x="160" y="65" width="10" height="10" as="geometry" />
        </mxCell>
        <mxCell id="5v7NeGWSbQVxWcgzCbkK-50" style="edgeStyle=none;rounded=1;orthogonalLoop=1;jettySize=auto;html=1;strokeWidth=2;fontSize=14;endArrow=none;endFill=0;endSize=6;sourcePerimeterSpacing=0;targetPerimeterSpacing=0;noEdgeStyle=1;orthogonal=1;" parent="5v7NeGWSbQVxWcgzCbkK-33" source="5v7NeGWSbQVxWcgzCbkK-46" target="5v7NeGWSbQVxWcgzCbkK-49" edge="1">
          <mxGeometry relative="1" as="geometry">
            <mxPoint x="50" y="60" as="sourcePoint" />
            <mxPoint x="160" y="60" as="targetPoint" />
          </mxGeometry>
        </mxCell>
        <mxCell id="5v7NeGWSbQVxWcgzCbkK-51" style="edgeStyle=none;rounded=1;orthogonalLoop=1;jettySize=auto;html=1;strokeWidth=2;fontSize=14;endArrow=none;endFill=0;endSize=6;sourcePerimeterSpacing=0;targetPerimeterSpacing=0;noEdgeStyle=1;orthogonal=1;" parent="5v7NeGWSbQVxWcgzCbkK-33" source="5v7NeGWSbQVxWcgzCbkK-46" target="5v7NeGWSbQVxWcgzCbkK-48" edge="1">
          <mxGeometry relative="1" as="geometry">
            <mxPoint x="160" y="60" as="sourcePoint" />
            <mxPoint x="170" y="70" as="targetPoint" />
          </mxGeometry>
        </mxCell>
        <mxCell id="5v7NeGWSbQVxWcgzCbkK-52" value="&lt;span style=&quot;color: rgb(0, 0, 0); font-family: Helvetica; font-size: 14px; font-style: normal; font-variant-ligatures: normal; font-variant-caps: normal; font-weight: 400; letter-spacing: normal; orphans: 2; text-align: center; text-indent: 0px; text-transform: none; widows: 2; word-spacing: 0px; -webkit-text-stroke-width: 0px; text-decoration-thickness: initial; text-decoration-style: initial; text-decoration-color: initial; float: none; display: inline !important;&quot;&gt;Setup Constraints&lt;/span&gt;" style="rounded=1;whiteSpace=wrap;html=1;fontSize=14;fillColor=#f5f5f5;strokeColor=#666666;labelBackgroundColor=none;fontColor=#333333;" parent="1" vertex="1">
          <mxGeometry x="500" y="370" width="100" height="40" as="geometry" />
        </mxCell>
        <mxCell id="5v7NeGWSbQVxWcgzCbkK-53" style="rounded=1;orthogonalLoop=1;jettySize=auto;html=1;fontSize=14;endArrow=oval;endFill=1;strokeWidth=2;sourcePerimeterSpacing=0;targetPerimeterSpacing=4;endSize=8;noEdgeStyle=1;orthogonal=1;" parent="1" source="5v7NeGWSbQVxWcgzCbkK-8" target="5v7NeGWSbQVxWcgzCbkK-52" edge="1">
          <mxGeometry relative="1" as="geometry">
            <mxPoint x="420" y="316" as="targetPoint" />
            <mxPoint x="350" y="280" as="sourcePoint" />
            <Array as="points">
              <mxPoint x="500" y="280" />
              <mxPoint x="550" y="350" />
            </Array>
          </mxGeometry>
        </mxCell>
        <mxCell id="5v7NeGWSbQVxWcgzCbkK-54" value="Narrative" style="rounded=1;whiteSpace=wrap;html=1;fontSize=14;fillColor=#f5f5f5;strokeColor=#666666;fontColor=#333333;" parent="1" vertex="1">
          <mxGeometry x="350" y="370" width="100" height="40" as="geometry" />
        </mxCell>
        <mxCell id="5v7NeGWSbQVxWcgzCbkK-55" style="rounded=1;orthogonalLoop=1;jettySize=auto;html=1;fontSize=14;endArrow=oval;endFill=1;strokeWidth=2;sourcePerimeterSpacing=0;targetPerimeterSpacing=4;endSize=8;noEdgeStyle=1;orthogonal=1;" parent="1" source="5v7NeGWSbQVxWcgzCbkK-8" target="5v7NeGWSbQVxWcgzCbkK-54" edge="1">
          <mxGeometry relative="1" as="geometry">
            <mxPoint x="530" y="316" as="targetPoint" />
            <mxPoint x="475" y="280" as="sourcePoint" />
            <Array as="points">
              <mxPoint x="430" y="280" />
              <mxPoint x="400" y="350" />
            </Array>
          </mxGeometry>
        </mxCell>
        <mxCell id="5v7NeGWSbQVxWcgzCbkK-56" value="Variations" style="rounded=1;whiteSpace=wrap;html=1;fontSize=14;fillColor=#f5f5f5;strokeColor=#666666;fontColor=#333333;" parent="1" vertex="1">
          <mxGeometry x="425" y="310" width="80" height="40" as="geometry" />
        </mxCell>
        <mxCell id="5v7NeGWSbQVxWcgzCbkK-57" style="rounded=1;orthogonalLoop=1;jettySize=auto;html=1;fontSize=14;endArrow=oval;endFill=1;strokeWidth=2;sourcePerimeterSpacing=0;targetPerimeterSpacing=4;endSize=8;noEdgeStyle=1;orthogonal=1;" parent="1" source="5v7NeGWSbQVxWcgzCbkK-8" target="5v7NeGWSbQVxWcgzCbkK-56" edge="1">
          <mxGeometry relative="1" as="geometry">
            <mxPoint x="420" y="375.9999999999999" as="targetPoint" />
            <mxPoint x="460" y="280" as="sourcePoint" />
          </mxGeometry>
        </mxCell>
        <mxCell id="5v7NeGWSbQVxWcgzCbkK-58" value="&lt;span style=&quot;color: rgb(0, 0, 0); font-family: Helvetica; font-size: 14px; font-style: normal; font-variant-ligatures: normal; font-variant-caps: normal; font-weight: 400; letter-spacing: normal; orphans: 2; text-align: center; text-indent: 0px; text-transform: none; widows: 2; word-spacing: 0px; -webkit-text-stroke-width: 0px; text-decoration-thickness: initial; text-decoration-style: initial; text-decoration-color: initial; float: none; display: inline !important;&quot;&gt;Functional&lt;/span&gt;" style="rounded=1;whiteSpace=wrap;html=1;fontSize=14;fillColor=#f5f5f5;strokeColor=#666666;labelBackgroundColor=none;fontColor=#333333;" parent="1" vertex="1">
          <mxGeometry x="550" y="300" width="80" height="40" as="geometry" />
        </mxCell>
        <mxCell id="5v7NeGWSbQVxWcgzCbkK-59" value="&lt;span style=&quot;color: rgb(0, 0, 0); font-family: Helvetica; font-size: 14px; font-style: normal; font-variant-ligatures: normal; font-variant-caps: normal; font-weight: 400; letter-spacing: normal; orphans: 2; text-align: center; text-indent: 0px; text-transform: none; widows: 2; word-spacing: 0px; -webkit-text-stroke-width: 0px; text-decoration-thickness: initial; text-decoration-style: initial; text-decoration-color: initial; float: none; display: inline !important;&quot;&gt;Non-Functional&lt;/span&gt;" style="rounded=1;whiteSpace=wrap;html=1;fontSize=14;fillColor=#f5f5f5;strokeColor=#666666;labelBackgroundColor=none;fontColor=#333333;" parent="1" vertex="1">
          <mxGeometry x="640" y="300" width="110" height="40" as="geometry" />
        </mxCell>
        <mxCell id="5v7NeGWSbQVxWcgzCbkK-60" value="" style="rounded=1;whiteSpace=wrap;html=1;fontSize=14;container=1;strokeColor=none;collapsible=0;recursiveResize=0;fillColor=none;" parent="1" vertex="1">
          <mxGeometry x="580" y="230" width="120" height="60" as="geometry" />
        </mxCell>
        <mxCell id="5v7NeGWSbQVxWcgzCbkK-61" value="" style="verticalLabelPosition=bottom;verticalAlign=top;html=1;shape=mxgraph.basic.cone2;dx=0.5;dy=0.9;recursiveResize=0;fillColor=#000000;" parent="5v7NeGWSbQVxWcgzCbkK-60" vertex="1">
          <mxGeometry x="50" y="40" width="20" height="20" as="geometry" />
        </mxCell>
        <mxCell id="5v7NeGWSbQVxWcgzCbkK-62" value="&lt;span style=&quot;&quot;&gt;Quality Aspect&lt;/span&gt;" style="rounded=1;whiteSpace=wrap;html=1;fontSize=14;fillColor=#f5f5f5;strokeColor=#666666;labelBackgroundColor=none;fontColor=#333333;" parent="5v7NeGWSbQVxWcgzCbkK-60" vertex="1">
          <mxGeometry x="10" width="100" height="40" as="geometry" />
        </mxCell>
        <mxCell id="5v7NeGWSbQVxWcgzCbkK-63" style="edgeStyle=none;rounded=1;orthogonalLoop=1;jettySize=auto;html=1;strokeWidth=2;fontSize=14;endArrow=none;endFill=0;endSize=6;sourcePerimeterSpacing=0;targetPerimeterSpacing=0;noEdgeStyle=1;orthogonal=1;entryX=0.75;entryY=0;entryDx=0;entryDy=0;" parent="1" source="5v7NeGWSbQVxWcgzCbkK-61" target="5v7NeGWSbQVxWcgzCbkK-58" edge="1">
          <mxGeometry relative="1" as="geometry">
            <mxPoint x="830" y="300" as="sourcePoint" />
            <mxPoint x="790" y="360" as="targetPoint" />
          </mxGeometry>
        </mxCell>
        <mxCell id="5v7NeGWSbQVxWcgzCbkK-64" style="edgeStyle=none;rounded=1;orthogonalLoop=1;jettySize=auto;html=1;strokeWidth=2;fontSize=14;endArrow=none;endFill=0;endSize=6;sourcePerimeterSpacing=0;targetPerimeterSpacing=0;noEdgeStyle=1;orthogonal=1;entryX=0.25;entryY=0;entryDx=0;entryDy=0;" parent="1" source="5v7NeGWSbQVxWcgzCbkK-61" target="5v7NeGWSbQVxWcgzCbkK-59" edge="1">
          <mxGeometry relative="1" as="geometry">
            <mxPoint x="830" y="300" as="sourcePoint" />
            <mxPoint x="790" y="360" as="targetPoint" />
          </mxGeometry>
        </mxCell>
      </root>
    </mxGraphModel>
  </diagram>
  <diagram id="ZEdvAjwRvhfFfU4vhd3f" name="BDD perspective">
    <mxGraphModel dx="2060" dy="1200" grid="1" gridSize="10" guides="1" tooltips="1" connect="1" arrows="1" fold="1" page="1" pageScale="1" pageWidth="1169" pageHeight="827" math="0" shadow="0">
      <root>
        <mxCell id="0" />
        <mxCell id="1" parent="0" />
        <mxCell id="2962bJXjeqFY2yjDjcdw-1" value="&quot;Internal&quot; events,&lt;br&gt;e.g. state transitions" style="rounded=1;whiteSpace=wrap;html=1;fontSize=14;" parent="1" vertex="1">
          <mxGeometry x="540" y="700" width="140" height="60" as="geometry" />
        </mxCell>
        <mxCell id="rn4LNTxw31jAc6wFaUva-1" value="Setup constraints" style="rounded=1;whiteSpace=wrap;html=1;fontSize=14;" parent="1" vertex="1">
          <mxGeometry x="20" y="720" width="120" height="40" as="geometry" />
        </mxCell>
        <mxCell id="kfMckqCrg7SLangU7sLF-1" value="" style="rounded=1;whiteSpace=wrap;html=1;fontSize=14;container=1;collapsible=0;recursiveResize=1;verticalAlign=top;" parent="1" vertex="1">
          <mxGeometry x="960" y="30" width="250" height="220" as="geometry" />
        </mxCell>
        <mxCell id="kfMckqCrg7SLangU7sLF-2" value="&lt;p style=&quot;&quot;&gt;&lt;font size=&quot;1&quot; style=&quot;line-height: 1;&quot;&gt;&lt;b style=&quot;font-size: 18px;&quot;&gt;Pickup Scenario Template&lt;/b&gt;&lt;/font&gt;&lt;/p&gt;&lt;p style=&quot;font-size: 14px;&quot;&gt;&lt;b style=&quot;font-size: 14px;&quot;&gt;@intent &lt;/b&gt;pickup&lt;br style=&quot;font-size: 14px;&quot;&gt;&lt;b style=&quot;font-size: 14px;&quot;&gt;Given &lt;/b&gt;&amp;lt;robot&amp;gt;&lt;br style=&quot;font-size: 14px;&quot;&gt;&lt;b style=&quot;font-size: 14px;&quot;&gt;And &lt;/b&gt;&amp;lt;object&amp;gt; is &amp;lt;graspable&amp;gt;&lt;/p&gt;&lt;p style=&quot;font-size: 14px;&quot;&gt;&lt;b style=&quot;font-size: 14px;&quot;&gt;When&lt;/b&gt; &amp;lt;event&amp;gt;&lt;/p&gt;&lt;p style=&quot;font-size: 14px;&quot;&gt;&lt;b style=&quot;font-size: 14px;&quot;&gt;Then&lt;/b&gt; &amp;lt;object&amp;gt; is &amp;lt;picked up&amp;gt;&lt;/p&gt;" style="text;html=1;strokeColor=none;fillColor=none;spacing=5;spacingTop=0;whiteSpace=wrap;overflow=hidden;rounded=0;fontSize=14;labelPosition=center;verticalLabelPosition=middle;align=left;verticalAlign=top;" parent="kfMckqCrg7SLangU7sLF-1" vertex="1">
          <mxGeometry x="8" y="11.58" width="242" height="198" as="geometry" />
        </mxCell>
        <mxCell id="WRZ5H4VL_i2bQgBpzZ_G-1" value="" style="rounded=1;whiteSpace=wrap;html=1;fontSize=14;container=1;strokeColor=none;collapsible=0;recursiveResize=0;fillColor=none;" parent="1" vertex="1">
          <mxGeometry x="205" y="560" width="140" height="100" as="geometry" />
        </mxCell>
        <mxCell id="WRZ5H4VL_i2bQgBpzZ_G-2" value="Given &amp;lt;precondition&amp;gt;" style="rounded=1;whiteSpace=wrap;html=1;fontSize=14;" parent="WRZ5H4VL_i2bQgBpzZ_G-1" vertex="1">
          <mxGeometry x="10" width="120" height="60" as="geometry" />
        </mxCell>
        <mxCell id="WRZ5H4VL_i2bQgBpzZ_G-3" value="" style="verticalLabelPosition=bottom;verticalAlign=top;html=1;shape=mxgraph.basic.cone2;dx=0.5;dy=0.9;recursiveResize=0;fontSize=18;fillColor=#000000;" parent="WRZ5H4VL_i2bQgBpzZ_G-1" vertex="1">
          <mxGeometry x="60" y="60" width="20" height="30" as="geometry" />
        </mxCell>
        <mxCell id="WRZ5H4VL_i2bQgBpzZ_G-4" value="Environment" style="rounded=1;whiteSpace=wrap;html=1;fontSize=14;" parent="1" vertex="1">
          <mxGeometry x="190" y="720" width="120" height="40" as="geometry" />
        </mxCell>
        <mxCell id="WRZ5H4VL_i2bQgBpzZ_G-5" value="Agents/Actors" style="rounded=1;whiteSpace=wrap;html=1;fontSize=14;" parent="1" vertex="1">
          <mxGeometry x="370" y="720" width="120" height="40" as="geometry" />
        </mxCell>
        <mxCell id="WRZ5H4VL_i2bQgBpzZ_G-9" style="edgeStyle=none;rounded=1;orthogonalLoop=1;jettySize=auto;html=1;strokeWidth=2;fontSize=14;endArrow=none;endFill=0;endSize=6;sourcePerimeterSpacing=0;targetPerimeterSpacing=0;noEdgeStyle=1;orthogonal=1;curved=1;" parent="1" source="WRZ5H4VL_i2bQgBpzZ_G-3" target="rn4LNTxw31jAc6wFaUva-1" edge="1">
          <mxGeometry relative="1" as="geometry">
            <Array as="points">
              <mxPoint x="240" y="680" />
            </Array>
            <mxPoint x="741.6633333333335" y="790" as="sourcePoint" />
            <mxPoint x="518.3299999999999" y="900" as="targetPoint" />
          </mxGeometry>
        </mxCell>
        <mxCell id="WRZ5H4VL_i2bQgBpzZ_G-10" style="edgeStyle=none;rounded=1;orthogonalLoop=1;jettySize=auto;html=1;strokeWidth=2;fontSize=14;endArrow=none;endFill=0;endSize=6;sourcePerimeterSpacing=0;targetPerimeterSpacing=0;noEdgeStyle=1;orthogonal=1;curved=1;exitX=0.217;exitY=1.067;exitDx=0;exitDy=0;exitPerimeter=0;" parent="1" source="WRZ5H4VL_i2bQgBpzZ_G-3" target="WRZ5H4VL_i2bQgBpzZ_G-4" edge="1">
          <mxGeometry relative="1" as="geometry">
            <Array as="points">
              <mxPoint x="260" y="690" />
              <mxPoint x="230" y="720" />
            </Array>
            <mxPoint x="260" y="650" as="sourcePoint" />
            <mxPoint x="480" y="710" as="targetPoint" />
          </mxGeometry>
        </mxCell>
        <mxCell id="WRZ5H4VL_i2bQgBpzZ_G-11" style="edgeStyle=none;rounded=1;orthogonalLoop=1;jettySize=auto;html=1;strokeWidth=2;fontSize=14;endArrow=none;endFill=0;endSize=6;sourcePerimeterSpacing=0;targetPerimeterSpacing=0;noEdgeStyle=1;orthogonal=1;curved=1;exitX=0.667;exitY=0.978;exitDx=0;exitDy=0;exitPerimeter=0;" parent="1" source="WRZ5H4VL_i2bQgBpzZ_G-3" target="WRZ5H4VL_i2bQgBpzZ_G-5" edge="1">
          <mxGeometry relative="1" as="geometry">
            <mxPoint x="270" y="650" as="sourcePoint" />
            <mxPoint x="280" y="730" as="targetPoint" />
            <Array as="points">
              <mxPoint x="310" y="720" />
            </Array>
          </mxGeometry>
        </mxCell>
        <mxCell id="rgDR3pWKd_gvrtYpsZ0o-1" value="" style="endArrow=classicThin;dashed=1;html=1;rounded=1;strokeWidth=2;endFill=1;edgeStyle=orthogonalEdgeStyle;jumpStyle=arc;jumpSize=10;fontSize=18;curved=1;" parent="1" source="rn4LNTxw31jAc6wFaUva-1" target="WRZ5H4VL_i2bQgBpzZ_G-4" edge="1">
          <mxGeometry width="50" height="50" relative="1" as="geometry">
            <mxPoint x="480" y="640" as="sourcePoint" />
            <mxPoint x="709.9999999999998" y="640" as="targetPoint" />
          </mxGeometry>
        </mxCell>
        <mxCell id="rgDR3pWKd_gvrtYpsZ0o-2" value="" style="endArrow=classicThin;dashed=1;html=1;rounded=1;strokeWidth=2;endFill=1;edgeStyle=orthogonalEdgeStyle;jumpStyle=arc;jumpSize=10;fontSize=18;curved=1;" parent="1" source="rn4LNTxw31jAc6wFaUva-1" target="WRZ5H4VL_i2bQgBpzZ_G-5" edge="1">
          <mxGeometry width="50" height="50" relative="1" as="geometry">
            <mxPoint x="480" y="640" as="sourcePoint" />
            <mxPoint x="709.9999999999998" y="640" as="targetPoint" />
            <Array as="points">
              <mxPoint x="110" y="800" />
              <mxPoint x="430" y="800" />
            </Array>
          </mxGeometry>
        </mxCell>
        <mxCell id="8lOOzOlfFPaIF3qm-0XY-1" value="Task/Mission" style="rounded=1;whiteSpace=wrap;html=1;fontSize=14;" parent="1" vertex="1">
          <mxGeometry x="390" y="650" width="120" height="40" as="geometry" />
        </mxCell>
        <mxCell id="AJGm868DIespjJxJZN-F-1" style="edgeStyle=none;rounded=1;orthogonalLoop=1;jettySize=auto;html=1;strokeWidth=2;fontSize=14;endArrow=none;endFill=0;endSize=6;sourcePerimeterSpacing=0;targetPerimeterSpacing=0;noEdgeStyle=1;orthogonal=1;curved=1;" parent="1" source="WRZ5H4VL_i2bQgBpzZ_G-3" target="8lOOzOlfFPaIF3qm-0XY-1" edge="1">
          <mxGeometry relative="1" as="geometry">
            <mxPoint x="290.0000000000002" y="660" as="sourcePoint" />
            <mxPoint x="380" y="730" as="targetPoint" />
            <Array as="points">
              <mxPoint x="350" y="670" />
            </Array>
          </mxGeometry>
        </mxCell>
        <mxCell id="AJGm868DIespjJxJZN-F-2" value="" style="rounded=1;whiteSpace=wrap;html=1;fontSize=14;container=1;strokeColor=none;collapsible=0;recursiveResize=0;fillColor=none;" parent="1" vertex="1">
          <mxGeometry x="630" y="560" width="140" height="100" as="geometry" />
        </mxCell>
        <mxCell id="AJGm868DIespjJxJZN-F-3" value="When&lt;br&gt;&amp;lt;event&amp;gt;" style="rounded=1;whiteSpace=wrap;html=1;fontSize=14;fillColor=#FFFFFF;" parent="AJGm868DIespjJxJZN-F-2" vertex="1">
          <mxGeometry x="10" width="120" height="60" as="geometry" />
        </mxCell>
        <mxCell id="AJGm868DIespjJxJZN-F-4" value="" style="verticalLabelPosition=bottom;verticalAlign=top;html=1;shape=mxgraph.basic.cone2;dx=0.5;dy=0.9;recursiveResize=0;fontSize=18;fillColor=#000000;" parent="AJGm868DIespjJxJZN-F-2" vertex="1">
          <mxGeometry x="60" y="60" width="20" height="30" as="geometry" />
        </mxCell>
        <mxCell id="AJGm868DIespjJxJZN-F-5" value="&quot;External&quot; events, e.g. refbox commands" style="rounded=1;whiteSpace=wrap;html=1;fontSize=14;" parent="1" vertex="1">
          <mxGeometry x="710" y="700" width="160" height="60" as="geometry" />
        </mxCell>
        <mxCell id="AJGm868DIespjJxJZN-F-6" style="edgeStyle=none;rounded=1;orthogonalLoop=1;jettySize=auto;html=1;strokeWidth=2;fontSize=14;endArrow=none;endFill=0;endSize=6;sourcePerimeterSpacing=0;targetPerimeterSpacing=0;noEdgeStyle=1;orthogonal=1;curved=1;" parent="1" source="AJGm868DIespjJxJZN-F-4" target="AJGm868DIespjJxJZN-F-5" edge="1">
          <mxGeometry relative="1" as="geometry">
            <mxPoint x="295" y="660" as="sourcePoint" />
            <mxPoint x="400" y="680" as="targetPoint" />
            <Array as="points">
              <mxPoint x="740" y="680" />
              <mxPoint x="800" y="700" />
            </Array>
          </mxGeometry>
        </mxCell>
        <mxCell id="AJGm868DIespjJxJZN-F-7" style="edgeStyle=none;rounded=1;orthogonalLoop=1;jettySize=auto;html=1;strokeWidth=2;fontSize=14;endArrow=none;endFill=0;endSize=6;sourcePerimeterSpacing=0;targetPerimeterSpacing=0;noEdgeStyle=1;orthogonal=1;curved=1;" parent="1" source="AJGm868DIespjJxJZN-F-4" target="2962bJXjeqFY2yjDjcdw-1" edge="1">
          <mxGeometry relative="1" as="geometry">
            <mxPoint x="720" y="660" as="sourcePoint" />
            <mxPoint x="730" y="710" as="targetPoint" />
            <Array as="points">
              <mxPoint x="670" y="670" />
              <mxPoint x="600" y="700" />
            </Array>
          </mxGeometry>
        </mxCell>
        <mxCell id="AJGm868DIespjJxJZN-F-8" value="pass/fail" style="rounded=1;whiteSpace=wrap;html=1;fontSize=14;" parent="1" vertex="1">
          <mxGeometry x="950" y="880" width="100" height="40" as="geometry" />
        </mxCell>
        <mxCell id="AJGm868DIespjJxJZN-F-9" value="partial" style="rounded=1;whiteSpace=wrap;html=1;fontSize=14;" parent="1" vertex="1">
          <mxGeometry x="830" y="880" width="100" height="40" as="geometry" />
        </mxCell>
        <mxCell id="0h1pZAJA7wt3YRHiqhq9-1" value="compositions" style="rounded=1;whiteSpace=wrap;html=1;fontSize=14;" parent="1" vertex="1">
          <mxGeometry x="1069" y="880" width="100" height="40" as="geometry" />
        </mxCell>
        <mxCell id="2-s9O40TGjLBxDWSg-aP-1" value="Intents" style="swimlane;fontSize=18;" parent="1" vertex="1">
          <mxGeometry x="1470" y="20" width="450" height="470" as="geometry" />
        </mxCell>
        <mxCell id="2-s9O40TGjLBxDWSg-aP-10" style="edgeStyle=orthogonalEdgeStyle;rounded=1;orthogonalLoop=1;jettySize=auto;html=1;strokeWidth=2;" parent="2-s9O40TGjLBxDWSg-aP-1" source="2-s9O40TGjLBxDWSg-aP-2" target="2-s9O40TGjLBxDWSg-aP-3" edge="1">
          <mxGeometry relative="1" as="geometry">
            <Array as="points">
              <mxPoint x="75" y="200" />
            </Array>
          </mxGeometry>
        </mxCell>
        <mxCell id="2-s9O40TGjLBxDWSg-aP-11" style="edgeStyle=orthogonalEdgeStyle;rounded=1;orthogonalLoop=1;jettySize=auto;html=1;strokeWidth=2;" parent="2-s9O40TGjLBxDWSg-aP-1" source="2-s9O40TGjLBxDWSg-aP-2" target="2-s9O40TGjLBxDWSg-aP-9" edge="1">
          <mxGeometry relative="1" as="geometry" />
        </mxCell>
        <mxCell id="2-s9O40TGjLBxDWSg-aP-2" value="pick" style="rounded=1;arcSize=10;whiteSpace=wrap;html=1;align=center;" parent="2-s9O40TGjLBxDWSg-aP-1" vertex="1">
          <mxGeometry x="90" y="140" width="100" height="40" as="geometry" />
        </mxCell>
        <mxCell id="2-s9O40TGjLBxDWSg-aP-3" value="grasp" style="rounded=1;arcSize=10;whiteSpace=wrap;html=1;align=center;" parent="2-s9O40TGjLBxDWSg-aP-1" vertex="1">
          <mxGeometry x="25" y="240" width="100" height="40" as="geometry" />
        </mxCell>
        <mxCell id="2-s9O40TGjLBxDWSg-aP-4" value="place" style="rounded=1;arcSize=10;whiteSpace=wrap;html=1;align=center;" parent="2-s9O40TGjLBxDWSg-aP-1" vertex="1">
          <mxGeometry x="240" y="167.5" width="100" height="40" as="geometry" />
        </mxCell>
        <mxCell id="2-s9O40TGjLBxDWSg-aP-5" value="open" style="rounded=1;arcSize=10;whiteSpace=wrap;html=1;align=center;" parent="2-s9O40TGjLBxDWSg-aP-1" vertex="1">
          <mxGeometry x="165" y="314" width="100" height="40" as="geometry" />
        </mxCell>
        <mxCell id="2-s9O40TGjLBxDWSg-aP-6" value="wait" style="rounded=1;arcSize=10;whiteSpace=wrap;html=1;align=center;" parent="2-s9O40TGjLBxDWSg-aP-1" vertex="1">
          <mxGeometry x="25" y="314" width="100" height="40" as="geometry" />
        </mxCell>
        <mxCell id="2-s9O40TGjLBxDWSg-aP-12" style="edgeStyle=orthogonalEdgeStyle;rounded=1;orthogonalLoop=1;jettySize=auto;html=1;strokeWidth=2;" parent="2-s9O40TGjLBxDWSg-aP-1" source="2-s9O40TGjLBxDWSg-aP-7" target="2-s9O40TGjLBxDWSg-aP-2" edge="1">
          <mxGeometry relative="1" as="geometry" />
        </mxCell>
        <mxCell id="2-s9O40TGjLBxDWSg-aP-13" style="edgeStyle=orthogonalEdgeStyle;rounded=1;orthogonalLoop=1;jettySize=auto;html=1;strokeWidth=2;" parent="2-s9O40TGjLBxDWSg-aP-1" source="2-s9O40TGjLBxDWSg-aP-7" target="2-s9O40TGjLBxDWSg-aP-4" edge="1">
          <mxGeometry relative="1" as="geometry">
            <Array as="points">
              <mxPoint x="205" y="130" />
              <mxPoint x="290" y="130" />
            </Array>
          </mxGeometry>
        </mxCell>
        <mxCell id="2-s9O40TGjLBxDWSg-aP-14" style="edgeStyle=orthogonalEdgeStyle;rounded=1;orthogonalLoop=1;jettySize=auto;html=1;strokeWidth=2;" parent="2-s9O40TGjLBxDWSg-aP-1" source="2-s9O40TGjLBxDWSg-aP-7" target="2-s9O40TGjLBxDWSg-aP-8" edge="1">
          <mxGeometry relative="1" as="geometry">
            <Array as="points">
              <mxPoint x="205" y="130" />
              <mxPoint x="365" y="130" />
            </Array>
          </mxGeometry>
        </mxCell>
        <mxCell id="2-s9O40TGjLBxDWSg-aP-7" value="transport object, e.g. from table to shelf" style="rounded=1;arcSize=10;whiteSpace=wrap;html=1;align=center;" parent="2-s9O40TGjLBxDWSg-aP-1" vertex="1">
          <mxGeometry x="145" y="40" width="120" height="60" as="geometry" />
        </mxCell>
        <mxCell id="2-s9O40TGjLBxDWSg-aP-8" value="navigate" style="rounded=1;arcSize=10;whiteSpace=wrap;html=1;align=center;" parent="2-s9O40TGjLBxDWSg-aP-1" vertex="1">
          <mxGeometry x="315" y="240" width="100" height="40" as="geometry" />
        </mxCell>
        <mxCell id="2-s9O40TGjLBxDWSg-aP-9" value="move arm" style="rounded=1;arcSize=10;whiteSpace=wrap;html=1;align=center;" parent="2-s9O40TGjLBxDWSg-aP-1" vertex="1">
          <mxGeometry x="165" y="240" width="100" height="40" as="geometry" />
        </mxCell>
        <mxCell id="XjPIajlwmZe6DIQnpXYd-5" style="edgeStyle=orthogonalEdgeStyle;rounded=1;orthogonalLoop=1;jettySize=auto;html=1;strokeWidth=2;dashed=1;" parent="2-s9O40TGjLBxDWSg-aP-1" source="XjPIajlwmZe6DIQnpXYd-3" target="2-s9O40TGjLBxDWSg-aP-2" edge="1">
          <mxGeometry relative="1" as="geometry">
            <Array as="points">
              <mxPoint x="10" y="410" />
              <mxPoint x="10" y="160" />
            </Array>
          </mxGeometry>
        </mxCell>
        <mxCell id="XjPIajlwmZe6DIQnpXYd-6" style="edgeStyle=orthogonalEdgeStyle;rounded=1;orthogonalLoop=1;jettySize=auto;html=1;dashed=1;strokeWidth=2;" parent="2-s9O40TGjLBxDWSg-aP-1" source="XjPIajlwmZe6DIQnpXYd-3" target="XjPIajlwmZe6DIQnpXYd-4" edge="1">
          <mxGeometry relative="1" as="geometry" />
        </mxCell>
        <mxCell id="XjPIajlwmZe6DIQnpXYd-3" value="&amp;lt;Behaviour&amp;gt; &lt;b&gt;to&lt;/b&gt; &amp;lt;Behaviour&amp;gt;" style="rounded=1;arcSize=10;whiteSpace=wrap;html=1;align=center;" parent="2-s9O40TGjLBxDWSg-aP-1" vertex="1">
          <mxGeometry x="25" y="380" width="100" height="60" as="geometry" />
        </mxCell>
        <mxCell id="XjPIajlwmZe6DIQnpXYd-4" value="pour" style="rounded=1;arcSize=10;whiteSpace=wrap;html=1;align=center;" parent="2-s9O40TGjLBxDWSg-aP-1" vertex="1">
          <mxGeometry x="165" y="390" width="100" height="40" as="geometry" />
        </mxCell>
        <mxCell id="XjPIajlwmZe6DIQnpXYd-7" value="drop" style="rounded=1;arcSize=10;whiteSpace=wrap;html=1;align=center;" parent="2-s9O40TGjLBxDWSg-aP-1" vertex="1">
          <mxGeometry x="315" y="390" width="100" height="40" as="geometry" />
        </mxCell>
        <mxCell id="XjPIajlwmZe6DIQnpXYd-9" style="edgeStyle=orthogonalEdgeStyle;rounded=1;orthogonalLoop=1;jettySize=auto;html=1;dashed=1;strokeWidth=2;" parent="2-s9O40TGjLBxDWSg-aP-1" source="XjPIajlwmZe6DIQnpXYd-8" target="XjPIajlwmZe6DIQnpXYd-7" edge="1">
          <mxGeometry relative="1" as="geometry">
            <Array as="points">
              <mxPoint x="365" y="380" />
              <mxPoint x="365" y="380" />
            </Array>
          </mxGeometry>
        </mxCell>
        <mxCell id="XjPIajlwmZe6DIQnpXYd-8" value="&lt;b&gt;not&lt;/b&gt;&amp;nbsp;&amp;lt;Behaviour&amp;gt;" style="rounded=1;arcSize=10;whiteSpace=wrap;html=1;align=center;" parent="2-s9O40TGjLBxDWSg-aP-1" vertex="1">
          <mxGeometry x="305" y="314" width="120" height="40" as="geometry" />
        </mxCell>
        <mxCell id="pyVwfzqAN4lmp1TW0TN--3" value="" style="rounded=1;whiteSpace=wrap;html=1;fontSize=14;container=1;strokeColor=none;collapsible=0;recursiveResize=0;fillColor=none;" parent="1" vertex="1">
          <mxGeometry x="990" y="560" width="140" height="100" as="geometry" />
        </mxCell>
        <mxCell id="pyVwfzqAN4lmp1TW0TN--4" value="Then&lt;br&gt;&amp;lt;post condition&amp;gt;" style="rounded=1;whiteSpace=wrap;html=1;fontSize=14;fillColor=#FFFFFF;" parent="pyVwfzqAN4lmp1TW0TN--3" vertex="1">
          <mxGeometry x="10" width="120" height="60" as="geometry" />
        </mxCell>
        <mxCell id="pyVwfzqAN4lmp1TW0TN--5" value="" style="verticalLabelPosition=bottom;verticalAlign=top;html=1;shape=mxgraph.basic.cone2;dx=0.5;dy=0.9;recursiveResize=0;fontSize=18;fillColor=#000000;" parent="pyVwfzqAN4lmp1TW0TN--3" vertex="1">
          <mxGeometry x="60" y="60" width="20" height="30" as="geometry" />
        </mxCell>
        <mxCell id="pyVwfzqAN4lmp1TW0TN--6" value="condition" style="rounded=1;whiteSpace=wrap;html=1;fontSize=14;" parent="1" vertex="1">
          <mxGeometry x="920" y="700" width="130" height="40" as="geometry" />
        </mxCell>
        <mxCell id="pyVwfzqAN4lmp1TW0TN--7" value="temporal constraint" style="rounded=1;whiteSpace=wrap;html=1;fontSize=14;" parent="1" vertex="1">
          <mxGeometry x="1080" y="700" width="130" height="40" as="geometry" />
        </mxCell>
        <mxCell id="pyVwfzqAN4lmp1TW0TN--8" style="edgeStyle=none;rounded=1;orthogonalLoop=1;jettySize=auto;html=1;strokeWidth=2;fontSize=14;endArrow=none;endFill=0;endSize=6;sourcePerimeterSpacing=0;targetPerimeterSpacing=0;noEdgeStyle=1;orthogonal=1;curved=1;" parent="1" source="pyVwfzqAN4lmp1TW0TN--5" target="pyVwfzqAN4lmp1TW0TN--6" edge="1">
          <mxGeometry relative="1" as="geometry">
            <mxPoint x="700" y="660" as="sourcePoint" />
            <mxPoint x="610" y="710" as="targetPoint" />
            <Array as="points">
              <mxPoint x="1040" y="680" />
              <mxPoint x="1000" y="700" />
            </Array>
          </mxGeometry>
        </mxCell>
        <mxCell id="pyVwfzqAN4lmp1TW0TN--10" style="edgeStyle=none;rounded=1;orthogonalLoop=1;jettySize=auto;html=1;strokeWidth=2;fontSize=14;endArrow=none;endFill=0;endSize=6;sourcePerimeterSpacing=0;targetPerimeterSpacing=0;noEdgeStyle=1;orthogonal=1;curved=1;" parent="1" source="pyVwfzqAN4lmp1TW0TN--5" target="pyVwfzqAN4lmp1TW0TN--7" edge="1">
          <mxGeometry relative="1" as="geometry">
            <mxPoint x="1060" y="660" as="sourcePoint" />
            <mxPoint x="1060" y="710" as="targetPoint" />
            <Array as="points">
              <mxPoint x="1150" y="700" />
            </Array>
          </mxGeometry>
        </mxCell>
        <mxCell id="pyVwfzqAN4lmp1TW0TN--11" style="rounded=1;orthogonalLoop=1;jettySize=auto;html=1;fontSize=14;endArrow=oval;endFill=1;strokeWidth=2;sourcePerimeterSpacing=0;targetPerimeterSpacing=4;endSize=8;noEdgeStyle=1;orthogonal=1;" parent="1" source="pyVwfzqAN4lmp1TW0TN--6" target="pyVwfzqAN4lmp1TW0TN--13" edge="1">
          <mxGeometry relative="1" as="geometry">
            <mxPoint x="1083.75" y="610" as="sourcePoint" />
            <mxPoint x="985" y="766" as="targetPoint" />
          </mxGeometry>
        </mxCell>
        <mxCell id="pyVwfzqAN4lmp1TW0TN--12" value="" style="rounded=1;whiteSpace=wrap;html=1;fontSize=14;container=1;strokeColor=none;collapsible=0;recursiveResize=0;fillColor=none;" parent="1" vertex="1">
          <mxGeometry x="915" y="770" width="140" height="80" as="geometry" />
        </mxCell>
        <mxCell id="pyVwfzqAN4lmp1TW0TN--13" value="evaluation criteria" style="rounded=1;whiteSpace=wrap;html=1;fontSize=14;fillColor=#FFFFFF;" parent="pyVwfzqAN4lmp1TW0TN--12" vertex="1">
          <mxGeometry x="10" width="120" height="40" as="geometry" />
        </mxCell>
        <mxCell id="pyVwfzqAN4lmp1TW0TN--14" value="" style="verticalLabelPosition=bottom;verticalAlign=top;html=1;shape=mxgraph.basic.cone2;dx=0.5;dy=0.9;recursiveResize=0;fontSize=18;fillColor=#FFFFFF;" parent="pyVwfzqAN4lmp1TW0TN--12" vertex="1">
          <mxGeometry x="60" y="40" width="20" height="30" as="geometry" />
        </mxCell>
        <mxCell id="pyVwfzqAN4lmp1TW0TN--16" style="edgeStyle=none;rounded=1;orthogonalLoop=1;jettySize=auto;html=1;strokeWidth=2;fontSize=14;endArrow=none;endFill=0;endSize=6;sourcePerimeterSpacing=0;targetPerimeterSpacing=0;noEdgeStyle=1;orthogonal=1;curved=1;" parent="1" source="pyVwfzqAN4lmp1TW0TN--14" target="AJGm868DIespjJxJZN-F-9" edge="1">
          <mxGeometry relative="1" as="geometry">
            <mxPoint x="1060" y="660" as="sourcePoint" />
            <mxPoint x="1010" y="710" as="targetPoint" />
          </mxGeometry>
        </mxCell>
        <mxCell id="pyVwfzqAN4lmp1TW0TN--17" style="edgeStyle=none;rounded=1;orthogonalLoop=1;jettySize=auto;html=1;strokeWidth=2;fontSize=14;endArrow=none;endFill=0;endSize=6;sourcePerimeterSpacing=0;targetPerimeterSpacing=0;noEdgeStyle=1;orthogonal=1;curved=1;" parent="1" source="pyVwfzqAN4lmp1TW0TN--14" target="AJGm868DIespjJxJZN-F-8" edge="1">
          <mxGeometry relative="1" as="geometry">
            <mxPoint x="985" y="850" as="sourcePoint" />
            <mxPoint x="940" y="890" as="targetPoint" />
          </mxGeometry>
        </mxCell>
        <mxCell id="pyVwfzqAN4lmp1TW0TN--18" style="edgeStyle=none;rounded=1;orthogonalLoop=1;jettySize=auto;html=1;strokeWidth=2;fontSize=14;endArrow=none;endFill=0;endSize=6;sourcePerimeterSpacing=0;targetPerimeterSpacing=0;noEdgeStyle=1;orthogonal=1;curved=1;" parent="1" source="pyVwfzqAN4lmp1TW0TN--14" target="0h1pZAJA7wt3YRHiqhq9-1" edge="1">
          <mxGeometry relative="1" as="geometry">
            <mxPoint x="995" y="850" as="sourcePoint" />
            <mxPoint x="995" y="890" as="targetPoint" />
          </mxGeometry>
        </mxCell>
        <mxCell id="XjPIajlwmZe6DIQnpXYd-10" value="&lt;font style=&quot;font-size: 20px;&quot;&gt;System Specifications&lt;/font&gt;" style="rounded=0;whiteSpace=wrap;html=1;container=1;collapsible=0;dashed=1;fillColor=none;recursiveResize=0;verticalAlign=top;fontStyle=1;fontSize=14;" parent="1" vertex="1">
          <mxGeometry x="25" y="20" width="855" height="480" as="geometry" />
        </mxCell>
        <mxCell id="aYpZdCEqaotuNfD6CPzg-3" value="Domain Model" style="swimlane;fontSize=18;collapsible=0;" parent="XjPIajlwmZe6DIQnpXYd-10" vertex="1">
          <mxGeometry x="315" y="40" width="520" height="320" as="geometry" />
        </mxCell>
        <mxCell id="M-z55NhtR0Ze-AdOJdmY-17" style="edgeStyle=orthogonalEdgeStyle;rounded=1;orthogonalLoop=1;jettySize=auto;html=1;strokeWidth=2;endArrow=classic;endFill=1;" parent="aYpZdCEqaotuNfD6CPzg-3" source="XjPIajlwmZe6DIQnpXYd-17" target="XjPIajlwmZe6DIQnpXYd-15" edge="1">
          <mxGeometry relative="1" as="geometry">
            <Array as="points">
              <mxPoint x="30" y="70" />
              <mxPoint x="30" y="220" />
            </Array>
            <mxPoint x="75.00000000000023" y="70.00000000000011" as="sourcePoint" />
            <mxPoint x="75.00000000000023" y="240" as="targetPoint" />
          </mxGeometry>
        </mxCell>
        <mxCell id="M-z55NhtR0Ze-AdOJdmY-16" style="edgeStyle=orthogonalEdgeStyle;rounded=1;orthogonalLoop=1;jettySize=auto;html=1;strokeWidth=2;endArrow=classic;endFill=1;" parent="aYpZdCEqaotuNfD6CPzg-3" source="XjPIajlwmZe6DIQnpXYd-16" target="XjPIajlwmZe6DIQnpXYd-15" edge="1">
          <mxGeometry relative="1" as="geometry">
            <mxPoint x="135.00000000000023" y="180" as="sourcePoint" />
            <mxPoint x="135.0344827586207" y="210.01724137931024" as="targetPoint" />
          </mxGeometry>
        </mxCell>
        <mxCell id="M-z55NhtR0Ze-AdOJdmY-7" value="origin" style="edgeStyle=orthogonalEdgeStyle;rounded=1;orthogonalLoop=1;jettySize=auto;html=1;strokeWidth=2;" parent="aYpZdCEqaotuNfD6CPzg-3" source="XjPIajlwmZe6DIQnpXYd-15" target="M-z55NhtR0Ze-AdOJdmY-6" edge="1">
          <mxGeometry relative="1" as="geometry">
            <Array as="points">
              <mxPoint x="230" y="210" />
              <mxPoint x="230" y="210" />
            </Array>
            <mxPoint x="180" y="230" as="sourcePoint" />
          </mxGeometry>
        </mxCell>
        <mxCell id="M-z55NhtR0Ze-AdOJdmY-8" value="target" style="edgeStyle=orthogonalEdgeStyle;rounded=1;orthogonalLoop=1;jettySize=auto;html=1;strokeWidth=2;" parent="aYpZdCEqaotuNfD6CPzg-3" source="XjPIajlwmZe6DIQnpXYd-15" target="M-z55NhtR0Ze-AdOJdmY-6" edge="1">
          <mxGeometry relative="1" as="geometry">
            <Array as="points">
              <mxPoint x="190" y="230" />
              <mxPoint x="190" y="230" />
            </Array>
            <mxPoint x="175.00000000000023" y="250" as="sourcePoint" />
          </mxGeometry>
        </mxCell>
        <mxCell id="M-z55NhtR0Ze-AdOJdmY-6" value="Frame" style="rounded=1;arcSize=10;whiteSpace=wrap;html=1;align=center;" parent="aYpZdCEqaotuNfD6CPzg-3" vertex="1">
          <mxGeometry x="270" y="200" width="100" height="40" as="geometry" />
        </mxCell>
        <mxCell id="M-z55NhtR0Ze-AdOJdmY-10" value="attached_to" style="edgeStyle=orthogonalEdgeStyle;rounded=1;orthogonalLoop=1;jettySize=auto;html=1;strokeWidth=2;" parent="aYpZdCEqaotuNfD6CPzg-3" source="M-z55NhtR0Ze-AdOJdmY-9" target="M-z55NhtR0Ze-AdOJdmY-6" edge="1">
          <mxGeometry x="-0.3336" relative="1" as="geometry">
            <Array as="points">
              <mxPoint x="450" y="220" />
            </Array>
            <mxPoint y="1" as="offset" />
          </mxGeometry>
        </mxCell>
        <mxCell id="M-z55NhtR0Ze-AdOJdmY-9" value="RigidBody" style="rounded=1;arcSize=10;whiteSpace=wrap;html=1;align=center;" parent="aYpZdCEqaotuNfD6CPzg-3" vertex="1">
          <mxGeometry x="400" y="120" width="100" height="40" as="geometry" />
        </mxCell>
        <mxCell id="M-z55NhtR0Ze-AdOJdmY-13" style="edgeStyle=orthogonalEdgeStyle;rounded=1;orthogonalLoop=1;jettySize=auto;html=1;strokeWidth=2;endArrow=block;endFill=0;" parent="aYpZdCEqaotuNfD6CPzg-3" source="M-z55NhtR0Ze-AdOJdmY-11" target="M-z55NhtR0Ze-AdOJdmY-9" edge="1">
          <mxGeometry relative="1" as="geometry" />
        </mxCell>
        <mxCell id="M-z55NhtR0Ze-AdOJdmY-11" value="Gripper" style="rounded=1;arcSize=10;whiteSpace=wrap;html=1;align=center;" parent="aYpZdCEqaotuNfD6CPzg-3" vertex="1">
          <mxGeometry x="270" y="50" width="100" height="40" as="geometry" />
        </mxCell>
        <mxCell id="M-z55NhtR0Ze-AdOJdmY-14" style="edgeStyle=orthogonalEdgeStyle;rounded=1;orthogonalLoop=1;jettySize=auto;html=1;strokeWidth=2;endArrow=block;endFill=0;" parent="aYpZdCEqaotuNfD6CPzg-3" source="M-z55NhtR0Ze-AdOJdmY-12" target="M-z55NhtR0Ze-AdOJdmY-9" edge="1">
          <mxGeometry relative="1" as="geometry" />
        </mxCell>
        <mxCell id="M-z55NhtR0Ze-AdOJdmY-12" value="Object" style="rounded=1;arcSize=10;whiteSpace=wrap;html=1;align=center;" parent="aYpZdCEqaotuNfD6CPzg-3" vertex="1">
          <mxGeometry x="270" y="120" width="100" height="40" as="geometry" />
        </mxCell>
        <mxCell id="M-z55NhtR0Ze-AdOJdmY-15" value="Event" style="rounded=1;arcSize=10;whiteSpace=wrap;html=1;align=center;" parent="aYpZdCEqaotuNfD6CPzg-3" vertex="1">
          <mxGeometry x="30" y="260" width="100" height="40" as="geometry" />
        </mxCell>
        <mxCell id="XjPIajlwmZe6DIQnpXYd-15" value="Pose" style="rounded=1;arcSize=10;whiteSpace=wrap;html=1;align=center;" parent="aYpZdCEqaotuNfD6CPzg-3" vertex="1">
          <mxGeometry x="85" y="200" width="100" height="40" as="geometry" />
        </mxCell>
        <mxCell id="XjPIajlwmZe6DIQnpXYd-16" value="IsPickedUp" style="rounded=1;arcSize=10;whiteSpace=wrap;html=1;align=center;" parent="aYpZdCEqaotuNfD6CPzg-3" vertex="1">
          <mxGeometry x="85" y="120" width="100" height="40" as="geometry" />
        </mxCell>
        <mxCell id="XjPIajlwmZe6DIQnpXYd-17" value="isGraspable" style="rounded=1;arcSize=10;whiteSpace=wrap;html=1;align=center;" parent="aYpZdCEqaotuNfD6CPzg-3" vertex="1">
          <mxGeometry x="85" y="50" width="100" height="40" as="geometry" />
        </mxCell>
        <mxCell id="_oPtxXtfdWaGt39KR5Xd-1" value="FSM" style="swimlane;fontSize=18;collapsible=0;container=1;" parent="XjPIajlwmZe6DIQnpXYd-10" vertex="1">
          <mxGeometry x="20" y="40" width="270" height="240" as="geometry" />
        </mxCell>
        <mxCell id="_oPtxXtfdWaGt39KR5Xd-9" style="edgeStyle=orthogonalEdgeStyle;curved=1;orthogonalLoop=1;jettySize=auto;html=1;strokeWidth=2;fontSize=18;endArrow=blockThin;endFill=1;" parent="_oPtxXtfdWaGt39KR5Xd-1" source="_oPtxXtfdWaGt39KR5Xd-2" target="_oPtxXtfdWaGt39KR5Xd-3" edge="1">
          <mxGeometry relative="1" as="geometry" />
        </mxCell>
        <mxCell id="_oPtxXtfdWaGt39KR5Xd-2" value="Start" style="rounded=1;arcSize=10;whiteSpace=wrap;html=1;align=center;" parent="_oPtxXtfdWaGt39KR5Xd-1" vertex="1">
          <mxGeometry x="20" y="40" width="100" height="40" as="geometry" />
        </mxCell>
        <mxCell id="_oPtxXtfdWaGt39KR5Xd-10" style="edgeStyle=orthogonalEdgeStyle;curved=1;orthogonalLoop=1;jettySize=auto;html=1;strokeWidth=2;fontSize=18;endArrow=blockThin;endFill=1;" parent="_oPtxXtfdWaGt39KR5Xd-1" source="_oPtxXtfdWaGt39KR5Xd-3" target="_oPtxXtfdWaGt39KR5Xd-4" edge="1">
          <mxGeometry relative="1" as="geometry" />
        </mxCell>
        <mxCell id="_oPtxXtfdWaGt39KR5Xd-3" value="Approach" style="rounded=1;arcSize=10;whiteSpace=wrap;html=1;align=center;" parent="_oPtxXtfdWaGt39KR5Xd-1" vertex="1">
          <mxGeometry x="160" y="40" width="100" height="40" as="geometry" />
        </mxCell>
        <mxCell id="_oPtxXtfdWaGt39KR5Xd-12" style="edgeStyle=orthogonalEdgeStyle;curved=1;orthogonalLoop=1;jettySize=auto;html=1;strokeWidth=2;fontSize=18;endArrow=blockThin;endFill=1;" parent="_oPtxXtfdWaGt39KR5Xd-1" source="_oPtxXtfdWaGt39KR5Xd-5" target="_oPtxXtfdWaGt39KR5Xd-6" edge="1">
          <mxGeometry relative="1" as="geometry" />
        </mxCell>
        <mxCell id="_oPtxXtfdWaGt39KR5Xd-5" value="Pickup" style="rounded=1;arcSize=10;whiteSpace=wrap;html=1;align=center;" parent="_oPtxXtfdWaGt39KR5Xd-1" vertex="1">
          <mxGeometry x="20" y="110" width="100" height="40" as="geometry" />
        </mxCell>
        <mxCell id="_oPtxXtfdWaGt39KR5Xd-11" style="edgeStyle=orthogonalEdgeStyle;curved=1;orthogonalLoop=1;jettySize=auto;html=1;strokeWidth=2;fontSize=18;endArrow=blockThin;endFill=1;" parent="_oPtxXtfdWaGt39KR5Xd-1" source="_oPtxXtfdWaGt39KR5Xd-4" target="_oPtxXtfdWaGt39KR5Xd-5" edge="1">
          <mxGeometry relative="1" as="geometry" />
        </mxCell>
        <mxCell id="_oPtxXtfdWaGt39KR5Xd-4" value="Grasp" style="rounded=1;arcSize=10;whiteSpace=wrap;html=1;align=center;" parent="_oPtxXtfdWaGt39KR5Xd-1" vertex="1">
          <mxGeometry x="160" y="110" width="100" height="40" as="geometry" />
        </mxCell>
        <mxCell id="_oPtxXtfdWaGt39KR5Xd-6" value="End" style="rounded=1;arcSize=10;whiteSpace=wrap;html=1;align=center;" parent="_oPtxXtfdWaGt39KR5Xd-1" vertex="1">
          <mxGeometry x="20" y="180" width="100" height="40" as="geometry" />
        </mxCell>
        <mxCell id="M-z55NhtR0Ze-AdOJdmY-34" value="Actors" style="swimlane;fontSize=18;container=1;collapsible=0;" parent="XjPIajlwmZe6DIQnpXYd-10" vertex="1">
          <mxGeometry x="20" y="310" width="160" height="160" as="geometry" />
        </mxCell>
        <mxCell id="M-z55NhtR0Ze-AdOJdmY-35" value="Robot" style="rounded=1;arcSize=10;whiteSpace=wrap;html=1;align=center;" parent="M-z55NhtR0Ze-AdOJdmY-34" vertex="1">
          <mxGeometry x="30" y="40" width="100" height="40" as="geometry" />
        </mxCell>
        <mxCell id="M-z55NhtR0Ze-AdOJdmY-36" value="Judge" style="rounded=1;arcSize=10;whiteSpace=wrap;html=1;align=center;" parent="M-z55NhtR0Ze-AdOJdmY-34" vertex="1">
          <mxGeometry x="30" y="100" width="100" height="40" as="geometry" />
        </mxCell>
        <mxCell id="_oPtxXtfdWaGt39KR5Xd-13" style="edgeStyle=orthogonalEdgeStyle;orthogonalLoop=1;jettySize=auto;html=1;strokeWidth=2;fontSize=18;endArrow=classic;endFill=1;rounded=1;" parent="XjPIajlwmZe6DIQnpXYd-10" source="M-z55NhtR0Ze-AdOJdmY-15" target="M-z55NhtR0Ze-AdOJdmY-36" edge="1">
          <mxGeometry relative="1" as="geometry">
            <Array as="points">
              <mxPoint x="225" y="320" />
              <mxPoint x="225" y="430" />
            </Array>
          </mxGeometry>
        </mxCell>
        <mxCell id="_oPtxXtfdWaGt39KR5Xd-8" style="edgeStyle=orthogonalEdgeStyle;orthogonalLoop=1;jettySize=auto;html=1;strokeWidth=2;fontSize=18;endArrow=classic;endFill=1;rounded=1;" parent="XjPIajlwmZe6DIQnpXYd-10" source="M-z55NhtR0Ze-AdOJdmY-15" target="_oPtxXtfdWaGt39KR5Xd-1" edge="1">
          <mxGeometry relative="1" as="geometry">
            <Array as="points">
              <mxPoint x="225" y="320" />
            </Array>
          </mxGeometry>
        </mxCell>
        <mxCell id="XjPIajlwmZe6DIQnpXYd-18" value="Measurement Model" style="swimlane;fontSize=18;container=1;collapsible=0;" parent="XjPIajlwmZe6DIQnpXYd-10" vertex="1">
          <mxGeometry x="575" y="370" width="205" height="90" as="geometry" />
        </mxCell>
        <mxCell id="XjPIajlwmZe6DIQnpXYd-19" value="pose(obj,&lt;br&gt;end effector)" style="rounded=1;arcSize=10;whiteSpace=wrap;html=1;align=center;" parent="XjPIajlwmZe6DIQnpXYd-18" vertex="1">
          <mxGeometry x="40" y="40" width="100" height="40" as="geometry" />
        </mxCell>
        <mxCell id="XjPIajlwmZe6DIQnpXYd-22" style="edgeStyle=orthogonalEdgeStyle;rounded=1;orthogonalLoop=1;jettySize=auto;html=1;dashed=1;strokeWidth=2;fontSize=20;" parent="XjPIajlwmZe6DIQnpXYd-10" source="XjPIajlwmZe6DIQnpXYd-19" target="XjPIajlwmZe6DIQnpXYd-15" edge="1">
          <mxGeometry relative="1" as="geometry">
            <Array as="points">
              <mxPoint x="475" y="430" />
            </Array>
          </mxGeometry>
        </mxCell>
        <mxCell id="XjPIajlwmZe6DIQnpXYd-11" value="" style="rounded=1;whiteSpace=wrap;html=1;fontSize=14;container=1;collapsible=0;recursiveResize=1;verticalAlign=top;" parent="1" vertex="1">
          <mxGeometry x="960" y="270" width="250" height="230" as="geometry" />
        </mxCell>
        <mxCell id="XjPIajlwmZe6DIQnpXYd-12" value="&lt;p style=&quot;&quot;&gt;&lt;font size=&quot;1&quot; style=&quot;line-height: 1;&quot;&gt;&lt;b style=&quot;font-size: 18px;&quot;&gt;Pickup AC&lt;/b&gt;&lt;/font&gt;&lt;/p&gt;&lt;p style=&quot;font-size: 14px;&quot;&gt;&lt;b style=&quot;font-size: 14px;&quot;&gt;@intent &lt;/b&gt;pickup&lt;br style=&quot;font-size: 14px;&quot;&gt;&lt;b style=&quot;font-size: 14px;&quot;&gt;Given &lt;/b&gt;panda&lt;br style=&quot;font-size: 14px;&quot;&gt;&lt;b style=&quot;font-size: 14px;&quot;&gt;And &lt;/b&gt;pose(ball, table) ~= &amp;lt;...&amp;gt;&lt;/p&gt;&lt;p style=&quot;font-size: 14px;&quot;&gt;&lt;b style=&quot;font-size: 14px;&quot;&gt;When&lt;/b&gt;&amp;nbsp;start signal&lt;/p&gt;&lt;p style=&quot;font-size: 14px;&quot;&gt;&lt;b style=&quot;font-size: 14px;&quot;&gt;Then&lt;br&gt;&lt;/b&gt;&lt;span style=&quot;font-size: 14px;&quot;&gt;{&amp;nbsp;&lt;/span&gt;pose(obj, end effector) &amp;lt; 0.01m,&amp;nbsp; &amp;nbsp;after &amp;lt; 45 seconds }&lt;/p&gt;" style="text;html=1;strokeColor=none;fillColor=none;spacing=5;spacingTop=0;whiteSpace=wrap;overflow=hidden;rounded=0;fontSize=14;labelPosition=center;verticalLabelPosition=middle;align=left;verticalAlign=top;" parent="XjPIajlwmZe6DIQnpXYd-11" vertex="1">
          <mxGeometry x="8" y="12.106363636363636" width="242" height="207" as="geometry" />
        </mxCell>
      </root>
    </mxGraphModel>
  </diagram>
  <diagram id="Q_sryVdJy79toqVchPX3" name="template architecture">
    <mxGraphModel dx="3593" dy="1412" grid="1" gridSize="10" guides="1" tooltips="1" connect="1" arrows="1" fold="1" page="1" pageScale="1" pageWidth="1169" pageHeight="827" math="0" shadow="0">
      <root>
        <mxCell id="0" />
        <mxCell id="1" parent="0" />
        <mxCell id="QhH7yeanRsa6SQcDKi9A-71" style="edgeStyle=orthogonalEdgeStyle;orthogonalLoop=1;jettySize=auto;html=1;fontSize=18;curved=1;strokeWidth=3;" parent="1" source="VnLenm4AOQzkTwjeawGF-1" target="QhH7yeanRsa6SQcDKi9A-83" edge="1">
          <mxGeometry relative="1" as="geometry">
            <mxPoint x="735" y="230" as="targetPoint" />
          </mxGeometry>
        </mxCell>
        <mxCell id="VnLenm4AOQzkTwjeawGF-1" value="&lt;font style=&quot;font-size: 18px;&quot;&gt;AC template&lt;/font&gt;" style="rounded=1;whiteSpace=wrap;html=1;" parent="1" vertex="1">
          <mxGeometry x="760" y="130" width="150" height="60" as="geometry" />
        </mxCell>
        <mxCell id="QhH7yeanRsa6SQcDKi9A-74" style="edgeStyle=orthogonalEdgeStyle;curved=1;orthogonalLoop=1;jettySize=auto;html=1;strokeWidth=3;fontSize=18;" parent="1" source="QhH7yeanRsa6SQcDKi9A-83" target="QhH7yeanRsa6SQcDKi9A-73" edge="1">
          <mxGeometry relative="1" as="geometry">
            <mxPoint x="960" y="390" as="sourcePoint" />
            <Array as="points">
              <mxPoint x="825" y="280" />
            </Array>
          </mxGeometry>
        </mxCell>
        <mxCell id="QhH7yeanRsa6SQcDKi9A-82" style="edgeStyle=orthogonalEdgeStyle;orthogonalLoop=1;jettySize=auto;html=1;strokeWidth=3;fontSize=18;curved=1;" parent="1" source="QhH7yeanRsa6SQcDKi9A-84" target="QhH7yeanRsa6SQcDKi9A-81" edge="1">
          <mxGeometry relative="1" as="geometry">
            <mxPoint x="890" y="550" as="sourcePoint" />
            <Array as="points">
              <mxPoint x="760" y="680" />
            </Array>
          </mxGeometry>
        </mxCell>
        <mxCell id="QhH7yeanRsa6SQcDKi9A-72" style="edgeStyle=orthogonalEdgeStyle;curved=1;orthogonalLoop=1;jettySize=auto;html=1;fontSize=18;strokeWidth=3;" parent="1" source="QhH7yeanRsa6SQcDKi9A-1" target="QhH7yeanRsa6SQcDKi9A-83" edge="1">
          <mxGeometry relative="1" as="geometry">
            <mxPoint x="510" y="390" as="targetPoint" />
          </mxGeometry>
        </mxCell>
        <mxCell id="QhH7yeanRsa6SQcDKi9A-87" style="edgeStyle=orthogonalEdgeStyle;curved=1;orthogonalLoop=1;jettySize=auto;html=1;strokeWidth=3;fontSize=18;" parent="1" source="QhH7yeanRsa6SQcDKi9A-1" target="QhH7yeanRsa6SQcDKi9A-84" edge="1">
          <mxGeometry relative="1" as="geometry" />
        </mxCell>
        <mxCell id="QhH7yeanRsa6SQcDKi9A-1" value="&lt;font style=&quot;font-size: 20px;&quot;&gt;System Specifications&lt;/font&gt;" style="rounded=0;whiteSpace=wrap;html=1;container=1;collapsible=0;dashed=1;fillColor=none;recursiveResize=0;verticalAlign=top;fontStyle=1;fontSize=14;" parent="1" vertex="1">
          <mxGeometry x="-460" y="110" width="855" height="770" as="geometry" />
        </mxCell>
        <mxCell id="QhH7yeanRsa6SQcDKi9A-2" value="Domain Model" style="swimlane;fontSize=18;collapsible=0;" parent="QhH7yeanRsa6SQcDKi9A-1" vertex="1">
          <mxGeometry x="315" y="40" width="520" height="320" as="geometry" />
        </mxCell>
        <mxCell id="QhH7yeanRsa6SQcDKi9A-3" style="edgeStyle=orthogonalEdgeStyle;rounded=1;orthogonalLoop=1;jettySize=auto;html=1;strokeWidth=2;endArrow=classic;endFill=1;" parent="QhH7yeanRsa6SQcDKi9A-2" source="QhH7yeanRsa6SQcDKi9A-17" target="QhH7yeanRsa6SQcDKi9A-15" edge="1">
          <mxGeometry relative="1" as="geometry">
            <Array as="points">
              <mxPoint x="30" y="70" />
              <mxPoint x="30" y="220" />
            </Array>
            <mxPoint x="75.00000000000023" y="70.00000000000011" as="sourcePoint" />
            <mxPoint x="75.00000000000023" y="240" as="targetPoint" />
          </mxGeometry>
        </mxCell>
        <mxCell id="QhH7yeanRsa6SQcDKi9A-4" style="edgeStyle=orthogonalEdgeStyle;rounded=1;orthogonalLoop=1;jettySize=auto;html=1;strokeWidth=2;endArrow=classic;endFill=1;" parent="QhH7yeanRsa6SQcDKi9A-2" source="QhH7yeanRsa6SQcDKi9A-16" target="QhH7yeanRsa6SQcDKi9A-15" edge="1">
          <mxGeometry relative="1" as="geometry">
            <mxPoint x="135.00000000000023" y="180" as="sourcePoint" />
            <mxPoint x="135.0344827586207" y="210.01724137931024" as="targetPoint" />
          </mxGeometry>
        </mxCell>
        <mxCell id="QhH7yeanRsa6SQcDKi9A-5" value="origin" style="edgeStyle=orthogonalEdgeStyle;rounded=1;orthogonalLoop=1;jettySize=auto;html=1;strokeWidth=2;" parent="QhH7yeanRsa6SQcDKi9A-2" source="QhH7yeanRsa6SQcDKi9A-15" target="QhH7yeanRsa6SQcDKi9A-7" edge="1">
          <mxGeometry relative="1" as="geometry">
            <Array as="points">
              <mxPoint x="230" y="210" />
              <mxPoint x="230" y="210" />
            </Array>
            <mxPoint x="180" y="230" as="sourcePoint" />
          </mxGeometry>
        </mxCell>
        <mxCell id="QhH7yeanRsa6SQcDKi9A-6" value="target" style="edgeStyle=orthogonalEdgeStyle;rounded=1;orthogonalLoop=1;jettySize=auto;html=1;strokeWidth=2;" parent="QhH7yeanRsa6SQcDKi9A-2" source="QhH7yeanRsa6SQcDKi9A-15" target="QhH7yeanRsa6SQcDKi9A-7" edge="1">
          <mxGeometry relative="1" as="geometry">
            <Array as="points">
              <mxPoint x="190" y="230" />
              <mxPoint x="190" y="230" />
            </Array>
            <mxPoint x="175.00000000000023" y="250" as="sourcePoint" />
          </mxGeometry>
        </mxCell>
        <mxCell id="QhH7yeanRsa6SQcDKi9A-7" value="Frame" style="rounded=1;arcSize=10;whiteSpace=wrap;html=1;align=center;" parent="QhH7yeanRsa6SQcDKi9A-2" vertex="1">
          <mxGeometry x="270" y="200" width="100" height="40" as="geometry" />
        </mxCell>
        <mxCell id="QhH7yeanRsa6SQcDKi9A-8" value="attached_to" style="edgeStyle=orthogonalEdgeStyle;rounded=1;orthogonalLoop=1;jettySize=auto;html=1;strokeWidth=2;" parent="QhH7yeanRsa6SQcDKi9A-2" source="QhH7yeanRsa6SQcDKi9A-9" target="QhH7yeanRsa6SQcDKi9A-7" edge="1">
          <mxGeometry x="-0.3336" relative="1" as="geometry">
            <Array as="points">
              <mxPoint x="450" y="220" />
            </Array>
            <mxPoint y="1" as="offset" />
          </mxGeometry>
        </mxCell>
        <mxCell id="QhH7yeanRsa6SQcDKi9A-9" value="RigidBody" style="rounded=1;arcSize=10;whiteSpace=wrap;html=1;align=center;" parent="QhH7yeanRsa6SQcDKi9A-2" vertex="1">
          <mxGeometry x="400" y="120" width="100" height="40" as="geometry" />
        </mxCell>
        <mxCell id="QhH7yeanRsa6SQcDKi9A-10" style="edgeStyle=orthogonalEdgeStyle;rounded=1;orthogonalLoop=1;jettySize=auto;html=1;strokeWidth=2;endArrow=block;endFill=0;" parent="QhH7yeanRsa6SQcDKi9A-2" source="QhH7yeanRsa6SQcDKi9A-11" target="QhH7yeanRsa6SQcDKi9A-9" edge="1">
          <mxGeometry relative="1" as="geometry" />
        </mxCell>
        <mxCell id="QhH7yeanRsa6SQcDKi9A-11" value="Gripper" style="rounded=1;arcSize=10;whiteSpace=wrap;html=1;align=center;" parent="QhH7yeanRsa6SQcDKi9A-2" vertex="1">
          <mxGeometry x="270" y="50" width="100" height="40" as="geometry" />
        </mxCell>
        <mxCell id="QhH7yeanRsa6SQcDKi9A-12" style="edgeStyle=orthogonalEdgeStyle;rounded=1;orthogonalLoop=1;jettySize=auto;html=1;strokeWidth=2;endArrow=block;endFill=0;" parent="QhH7yeanRsa6SQcDKi9A-2" source="QhH7yeanRsa6SQcDKi9A-13" target="QhH7yeanRsa6SQcDKi9A-9" edge="1">
          <mxGeometry relative="1" as="geometry" />
        </mxCell>
        <mxCell id="QhH7yeanRsa6SQcDKi9A-13" value="Object" style="rounded=1;arcSize=10;whiteSpace=wrap;html=1;align=center;" parent="QhH7yeanRsa6SQcDKi9A-2" vertex="1">
          <mxGeometry x="270" y="120" width="100" height="40" as="geometry" />
        </mxCell>
        <mxCell id="QhH7yeanRsa6SQcDKi9A-14" value="Event" style="rounded=1;arcSize=10;whiteSpace=wrap;html=1;align=center;" parent="QhH7yeanRsa6SQcDKi9A-2" vertex="1">
          <mxGeometry x="30" y="260" width="100" height="40" as="geometry" />
        </mxCell>
        <mxCell id="QhH7yeanRsa6SQcDKi9A-15" value="Pose" style="rounded=1;arcSize=10;whiteSpace=wrap;html=1;align=center;" parent="QhH7yeanRsa6SQcDKi9A-2" vertex="1">
          <mxGeometry x="85" y="200" width="100" height="40" as="geometry" />
        </mxCell>
        <mxCell id="QhH7yeanRsa6SQcDKi9A-16" value="IsPickedUp" style="rounded=1;arcSize=10;whiteSpace=wrap;html=1;align=center;" parent="QhH7yeanRsa6SQcDKi9A-2" vertex="1">
          <mxGeometry x="85" y="120" width="100" height="40" as="geometry" />
        </mxCell>
        <mxCell id="QhH7yeanRsa6SQcDKi9A-17" value="isGraspable" style="rounded=1;arcSize=10;whiteSpace=wrap;html=1;align=center;" parent="QhH7yeanRsa6SQcDKi9A-2" vertex="1">
          <mxGeometry x="85" y="50" width="100" height="40" as="geometry" />
        </mxCell>
        <mxCell id="QhH7yeanRsa6SQcDKi9A-18" value="FSM" style="swimlane;fontSize=18;collapsible=0;container=1;" parent="QhH7yeanRsa6SQcDKi9A-1" vertex="1">
          <mxGeometry x="20" y="40" width="270" height="240" as="geometry" />
        </mxCell>
        <mxCell id="QhH7yeanRsa6SQcDKi9A-19" style="edgeStyle=orthogonalEdgeStyle;curved=1;orthogonalLoop=1;jettySize=auto;html=1;strokeWidth=2;fontSize=18;endArrow=blockThin;endFill=1;" parent="QhH7yeanRsa6SQcDKi9A-18" source="QhH7yeanRsa6SQcDKi9A-20" target="QhH7yeanRsa6SQcDKi9A-22" edge="1">
          <mxGeometry relative="1" as="geometry" />
        </mxCell>
        <mxCell id="QhH7yeanRsa6SQcDKi9A-20" value="Start" style="rounded=1;arcSize=10;whiteSpace=wrap;html=1;align=center;" parent="QhH7yeanRsa6SQcDKi9A-18" vertex="1">
          <mxGeometry x="20" y="40" width="100" height="40" as="geometry" />
        </mxCell>
        <mxCell id="QhH7yeanRsa6SQcDKi9A-21" style="edgeStyle=orthogonalEdgeStyle;curved=1;orthogonalLoop=1;jettySize=auto;html=1;strokeWidth=2;fontSize=18;endArrow=blockThin;endFill=1;" parent="QhH7yeanRsa6SQcDKi9A-18" source="QhH7yeanRsa6SQcDKi9A-22" target="QhH7yeanRsa6SQcDKi9A-26" edge="1">
          <mxGeometry relative="1" as="geometry" />
        </mxCell>
        <mxCell id="QhH7yeanRsa6SQcDKi9A-22" value="Approach" style="rounded=1;arcSize=10;whiteSpace=wrap;html=1;align=center;" parent="QhH7yeanRsa6SQcDKi9A-18" vertex="1">
          <mxGeometry x="160" y="40" width="100" height="40" as="geometry" />
        </mxCell>
        <mxCell id="QhH7yeanRsa6SQcDKi9A-23" style="edgeStyle=orthogonalEdgeStyle;curved=1;orthogonalLoop=1;jettySize=auto;html=1;strokeWidth=2;fontSize=18;endArrow=blockThin;endFill=1;" parent="QhH7yeanRsa6SQcDKi9A-18" source="QhH7yeanRsa6SQcDKi9A-24" target="QhH7yeanRsa6SQcDKi9A-27" edge="1">
          <mxGeometry relative="1" as="geometry" />
        </mxCell>
        <mxCell id="QhH7yeanRsa6SQcDKi9A-24" value="Pickup" style="rounded=1;arcSize=10;whiteSpace=wrap;html=1;align=center;" parent="QhH7yeanRsa6SQcDKi9A-18" vertex="1">
          <mxGeometry x="20" y="110" width="100" height="40" as="geometry" />
        </mxCell>
        <mxCell id="QhH7yeanRsa6SQcDKi9A-25" style="edgeStyle=orthogonalEdgeStyle;curved=1;orthogonalLoop=1;jettySize=auto;html=1;strokeWidth=2;fontSize=18;endArrow=blockThin;endFill=1;" parent="QhH7yeanRsa6SQcDKi9A-18" source="QhH7yeanRsa6SQcDKi9A-26" target="QhH7yeanRsa6SQcDKi9A-24" edge="1">
          <mxGeometry relative="1" as="geometry" />
        </mxCell>
        <mxCell id="QhH7yeanRsa6SQcDKi9A-26" value="Grasp" style="rounded=1;arcSize=10;whiteSpace=wrap;html=1;align=center;" parent="QhH7yeanRsa6SQcDKi9A-18" vertex="1">
          <mxGeometry x="160" y="110" width="100" height="40" as="geometry" />
        </mxCell>
        <mxCell id="QhH7yeanRsa6SQcDKi9A-27" value="End" style="rounded=1;arcSize=10;whiteSpace=wrap;html=1;align=center;" parent="QhH7yeanRsa6SQcDKi9A-18" vertex="1">
          <mxGeometry x="20" y="180" width="100" height="40" as="geometry" />
        </mxCell>
        <mxCell id="QhH7yeanRsa6SQcDKi9A-28" value="Actors" style="swimlane;fontSize=18;container=1;collapsible=0;" parent="QhH7yeanRsa6SQcDKi9A-1" vertex="1">
          <mxGeometry x="20" y="310" width="160" height="160" as="geometry" />
        </mxCell>
        <mxCell id="QhH7yeanRsa6SQcDKi9A-29" value="Robot" style="rounded=1;arcSize=10;whiteSpace=wrap;html=1;align=center;" parent="QhH7yeanRsa6SQcDKi9A-28" vertex="1">
          <mxGeometry x="30" y="40" width="100" height="40" as="geometry" />
        </mxCell>
        <mxCell id="QhH7yeanRsa6SQcDKi9A-30" value="Judge" style="rounded=1;arcSize=10;whiteSpace=wrap;html=1;align=center;" parent="QhH7yeanRsa6SQcDKi9A-28" vertex="1">
          <mxGeometry x="30" y="100" width="100" height="40" as="geometry" />
        </mxCell>
        <mxCell id="QhH7yeanRsa6SQcDKi9A-31" style="edgeStyle=orthogonalEdgeStyle;orthogonalLoop=1;jettySize=auto;html=1;strokeWidth=2;fontSize=18;endArrow=classic;endFill=1;rounded=1;" parent="QhH7yeanRsa6SQcDKi9A-1" source="QhH7yeanRsa6SQcDKi9A-14" target="QhH7yeanRsa6SQcDKi9A-30" edge="1">
          <mxGeometry relative="1" as="geometry">
            <Array as="points">
              <mxPoint x="225" y="320" />
              <mxPoint x="225" y="430" />
            </Array>
          </mxGeometry>
        </mxCell>
        <mxCell id="QhH7yeanRsa6SQcDKi9A-32" style="edgeStyle=orthogonalEdgeStyle;orthogonalLoop=1;jettySize=auto;html=1;strokeWidth=2;fontSize=18;endArrow=classic;endFill=1;rounded=1;" parent="QhH7yeanRsa6SQcDKi9A-1" source="QhH7yeanRsa6SQcDKi9A-14" target="QhH7yeanRsa6SQcDKi9A-18" edge="1">
          <mxGeometry relative="1" as="geometry">
            <Array as="points">
              <mxPoint x="225" y="320" />
            </Array>
          </mxGeometry>
        </mxCell>
        <mxCell id="QhH7yeanRsa6SQcDKi9A-33" value="Measurement Model" style="swimlane;fontSize=18;container=1;collapsible=0;" parent="QhH7yeanRsa6SQcDKi9A-1" vertex="1">
          <mxGeometry x="575" y="370" width="205" height="90" as="geometry" />
        </mxCell>
        <mxCell id="QhH7yeanRsa6SQcDKi9A-34" value="pose(obj,&lt;br&gt;end effector)" style="rounded=1;arcSize=10;whiteSpace=wrap;html=1;align=center;" parent="QhH7yeanRsa6SQcDKi9A-33" vertex="1">
          <mxGeometry x="40" y="40" width="100" height="40" as="geometry" />
        </mxCell>
        <mxCell id="QhH7yeanRsa6SQcDKi9A-35" style="edgeStyle=orthogonalEdgeStyle;rounded=1;orthogonalLoop=1;jettySize=auto;html=1;dashed=1;strokeWidth=2;fontSize=20;" parent="QhH7yeanRsa6SQcDKi9A-1" source="QhH7yeanRsa6SQcDKi9A-34" target="QhH7yeanRsa6SQcDKi9A-15" edge="1">
          <mxGeometry relative="1" as="geometry">
            <Array as="points">
              <mxPoint x="475" y="430" />
            </Array>
          </mxGeometry>
        </mxCell>
        <mxCell id="QhH7yeanRsa6SQcDKi9A-79" style="edgeStyle=orthogonalEdgeStyle;orthogonalLoop=1;jettySize=auto;html=1;strokeWidth=3;fontSize=18;rounded=1;" parent="QhH7yeanRsa6SQcDKi9A-1" source="QhH7yeanRsa6SQcDKi9A-77" target="QhH7yeanRsa6SQcDKi9A-2" edge="1">
          <mxGeometry relative="1" as="geometry">
            <Array as="points">
              <mxPoint x="370" y="390" />
              <mxPoint x="370" y="390" />
            </Array>
          </mxGeometry>
        </mxCell>
        <mxCell id="QhH7yeanRsa6SQcDKi9A-80" style="edgeStyle=orthogonalEdgeStyle;rounded=1;orthogonalLoop=1;jettySize=auto;html=1;strokeWidth=3;fontSize=18;" parent="QhH7yeanRsa6SQcDKi9A-1" source="QhH7yeanRsa6SQcDKi9A-77" target="QhH7yeanRsa6SQcDKi9A-33" edge="1">
          <mxGeometry relative="1" as="geometry" />
        </mxCell>
        <mxCell id="QhH7yeanRsa6SQcDKi9A-77" value="Test Specification" style="swimlane;fontSize=18;container=1;collapsible=0;" parent="QhH7yeanRsa6SQcDKi9A-1" vertex="1">
          <mxGeometry x="240" y="520" width="260" height="170" as="geometry" />
        </mxCell>
        <mxCell id="QhH7yeanRsa6SQcDKi9A-78" value="..." style="rounded=1;arcSize=10;whiteSpace=wrap;html=1;align=center;" parent="QhH7yeanRsa6SQcDKi9A-77" vertex="1">
          <mxGeometry x="40" y="40" width="100" height="40" as="geometry" />
        </mxCell>
        <mxCell id="QhH7yeanRsa6SQcDKi9A-93" value="Deployment Model" style="rounded=1;arcSize=10;whiteSpace=wrap;html=1;align=center;verticalAlign=top;fontSize=16;" parent="QhH7yeanRsa6SQcDKi9A-1" vertex="1">
          <mxGeometry x="40" y="540" width="150" height="90" as="geometry" />
        </mxCell>
        <mxCell id="QhH7yeanRsa6SQcDKi9A-92" style="edgeStyle=orthogonalEdgeStyle;curved=1;orthogonalLoop=1;jettySize=auto;html=1;strokeWidth=3;fontSize=18;" parent="1" source="QhH7yeanRsa6SQcDKi9A-73" target="QhH7yeanRsa6SQcDKi9A-84" edge="1">
          <mxGeometry relative="1" as="geometry" />
        </mxCell>
        <mxCell id="QhH7yeanRsa6SQcDKi9A-73" value="&lt;font style=&quot;font-size: 18px;&quot;&gt;acceptance criteria (BDD)&lt;/font&gt;" style="rounded=1;whiteSpace=wrap;html=1;" parent="1" vertex="1">
          <mxGeometry x="730" y="360" width="190" height="100" as="geometry" />
        </mxCell>
        <mxCell id="QhH7yeanRsa6SQcDKi9A-81" value="&lt;font style=&quot;font-size: 18px;&quot;&gt;executable scenario&lt;/font&gt;" style="rounded=1;whiteSpace=wrap;html=1;" parent="1" vertex="1">
          <mxGeometry x="680" y="770" width="190" height="100" as="geometry" />
        </mxCell>
        <mxCell id="QhH7yeanRsa6SQcDKi9A-83" value="&lt;span style=&quot;font-size: 18px;&quot;&gt;AC generation&lt;/span&gt;" style="rounded=1;whiteSpace=wrap;html=1;" parent="1" vertex="1">
          <mxGeometry x="600" y="240" width="150" height="60" as="geometry" />
        </mxCell>
        <mxCell id="QhH7yeanRsa6SQcDKi9A-84" value="&lt;span style=&quot;font-size: 18px;&quot;&gt;ExSce generation&lt;/span&gt;" style="rounded=1;whiteSpace=wrap;html=1;" parent="1" vertex="1">
          <mxGeometry x="510" y="640" width="150" height="60" as="geometry" />
        </mxCell>
        <mxCell id="QhH7yeanRsa6SQcDKi9A-86" style="edgeStyle=orthogonalEdgeStyle;curved=1;orthogonalLoop=1;jettySize=auto;html=1;strokeWidth=3;fontSize=18;" parent="1" source="QhH7yeanRsa6SQcDKi9A-85" target="QhH7yeanRsa6SQcDKi9A-84" edge="1">
          <mxGeometry relative="1" as="geometry">
            <Array as="points">
              <mxPoint x="765" y="600" />
              <mxPoint x="620" y="600" />
            </Array>
          </mxGeometry>
        </mxCell>
        <mxCell id="QhH7yeanRsa6SQcDKi9A-85" value="&lt;font style=&quot;font-size: 18px;&quot;&gt;ExSce template&lt;/font&gt;" style="rounded=1;whiteSpace=wrap;html=1;" parent="1" vertex="1">
          <mxGeometry x="690" y="520" width="150" height="60" as="geometry" />
        </mxCell>
        <mxCell id="QhH7yeanRsa6SQcDKi9A-95" style="edgeStyle=orthogonalEdgeStyle;curved=1;orthogonalLoop=1;jettySize=auto;html=1;strokeWidth=3;fontSize=16;" parent="1" source="QhH7yeanRsa6SQcDKi9A-94" target="QhH7yeanRsa6SQcDKi9A-81" edge="1">
          <mxGeometry relative="1" as="geometry" />
        </mxCell>
        <mxCell id="QhH7yeanRsa6SQcDKi9A-94" value="Test Executor" style="rounded=1;arcSize=10;whiteSpace=wrap;html=1;align=center;verticalAlign=top;fontSize=16;" parent="1" vertex="1">
          <mxGeometry x="950" y="690" width="150" height="90" as="geometry" />
        </mxCell>
        <mxCell id="QhH7yeanRsa6SQcDKi9A-99" value="Methodolgy" style="swimlane;fontSize=18;container=1;collapsible=0;" parent="1" vertex="1">
          <mxGeometry x="310" y="890" width="360" height="290" as="geometry" />
        </mxCell>
        <mxCell id="QhH7yeanRsa6SQcDKi9A-102" value="&lt;h1&gt;User perspective&lt;/h1&gt;&lt;p&gt;1. system spec&lt;/p&gt;&lt;p&gt;2. test spec -&amp;gt; AC gen&lt;/p&gt;&lt;p&gt;3. deployment spec -&amp;gt; ExSce gen&lt;/p&gt;&lt;p&gt;4. execute test&lt;/p&gt;" style="text;html=1;strokeColor=none;fillColor=none;spacing=5;spacingTop=-20;whiteSpace=wrap;overflow=hidden;rounded=0;fontSize=16;" parent="QhH7yeanRsa6SQcDKi9A-99" vertex="1">
          <mxGeometry y="50" width="330" height="240" as="geometry" />
        </mxCell>
        <mxCell id="QhH7yeanRsa6SQcDKi9A-104" style="edgeStyle=orthogonalEdgeStyle;curved=1;orthogonalLoop=1;jettySize=auto;html=1;strokeWidth=3;fontSize=16;dashed=1;" parent="1" source="QhH7yeanRsa6SQcDKi9A-103" target="VnLenm4AOQzkTwjeawGF-1" edge="1">
          <mxGeometry relative="1" as="geometry">
            <Array as="points">
              <mxPoint x="1040" y="160" />
            </Array>
          </mxGeometry>
        </mxCell>
        <mxCell id="QhH7yeanRsa6SQcDKi9A-103" value="&lt;font style=&quot;font-size: 18px;&quot;&gt;rule books domain analysis&lt;/font&gt;" style="rounded=1;whiteSpace=wrap;html=1;" parent="1" vertex="1">
          <mxGeometry x="920" y="30" width="210" height="100" as="geometry" />
        </mxCell>
      </root>
    </mxGraphModel>
  </diagram>
</mxfile>
